M48
;Layer_Color=9474304
;FILE_FORMAT=2:4
INCH,LZ
;TYPE=PLATED
T1F00S00C0.0080
T2F00S00C0.0354
;TYPE=NON_PLATED
T3F00S00C0.0354
T4F00S00C0.0433
T5F00S00C0.1250
%
T01
X021926Y043074
X022074Y043566
Y044058
X022717Y04537
X0233Y045147
X02366Y04491
X02493Y04508
Y04532
X026012Y04504
X026209Y04517
X026803Y044627
X0261Y04405
X026184Y042056
X02655Y042307
X02705Y0421
X02728Y0415
X02767Y04155
X0285Y04229
X02895Y04209
X03005
X0309Y04279
X02911Y04327
X028415Y043875
X0288Y04426
X02836Y04561
X02886Y04657
X02951Y046788
X02963Y046188
X030282Y045928
X03113Y046395
X031128Y046788
X02771Y04656
X02666Y046398
X02678Y046202
X02665Y046005
X024282Y046202
X02433Y04328
X0244Y042307
X02512Y0424
X02545Y04232
X02332Y04243
X03171Y04298
X03144Y04464
X03153Y047486
X030675Y04756
X03005Y04791
X02895
X0285Y04771
X0278Y0477
Y0469
X02768Y04845
X02646Y04836
X02682Y04796
X02631Y04752
X02621Y04718
X026012Y04735
X025225Y04756
X02424Y047383
X02411Y04855
X02474Y048753
X02583Y04892
X02505Y05105
X02405
X02355
X02305
Y05036
X02405
X02308Y04855
X022318Y048782
X02234Y04827
Y048014
X02295Y046927
X02115Y04906
T02
X02725Y0504
X02825
X02925
Y0514
X02825
X02725
X03025
Y0504
T03
X0233Y0507
X0248
T04
X022197Y041598
Y045042
T05
X0313Y0412
X02125Y0513
M30
