%FSLAX24Y24*%
%MOIN*%
G70*
G01*
G75*
%ADD10R,0.0710X0.0300*%
%ADD11R,0.1024X0.0787*%
%ADD12R,0.0532X0.0157*%
%ADD13R,0.0748X0.0630*%
%ADD14R,0.0748X0.0472*%
%ADD15R,0.0787X0.0827*%
%ADD16R,0.0150X0.0200*%
%ADD17R,0.0291X0.0728*%
%ADD18R,0.0787X0.0157*%
%ADD19R,0.0118X0.0472*%
%ADD20R,0.0472X0.0118*%
%ADD21R,0.0236X0.0098*%
%ADD22R,0.0295X0.0472*%
%ADD23R,0.0200X0.0150*%
%ADD24R,0.0300X0.0250*%
%ADD25R,0.0335X0.0138*%
%ADD26R,0.0138X0.0315*%
%ADD27R,0.0250X0.0300*%
%ADD28R,0.0118X0.0165*%
%ADD29R,0.0165X0.0118*%
%ADD30C,0.0100*%
%ADD31C,0.0120*%
%ADD32C,0.0050*%
%ADD33C,0.0060*%
%ADD34C,0.0140*%
%ADD35C,0.0080*%
%ADD36C,0.0098*%
%ADD37C,0.0160*%
%ADD38C,0.0433*%
%ADD39C,0.0591*%
%ADD40R,0.0591X0.0591*%
%ADD41C,0.0354*%
%ADD42C,0.1250*%
%ADD43C,0.0180*%
%ADD44C,0.0200*%
%ADD45C,0.0300*%
%ADD46R,0.1120X0.1120*%
%ADD47C,0.0787*%
%ADD48C,0.0059*%
%ADD49R,0.0760X0.0350*%
%ADD50R,0.1074X0.0837*%
%ADD51R,0.0582X0.0207*%
%ADD52R,0.0798X0.0680*%
%ADD53R,0.0798X0.0522*%
%ADD54R,0.0837X0.0877*%
%ADD55R,0.0200X0.0250*%
%ADD56R,0.0341X0.0778*%
%ADD57R,0.0837X0.0207*%
%ADD58R,0.0168X0.0522*%
%ADD59R,0.0522X0.0168*%
%ADD60R,0.0286X0.0148*%
%ADD61R,0.0345X0.0522*%
%ADD62R,0.0190X0.0240*%
%ADD63R,0.0250X0.0200*%
%ADD64R,0.0350X0.0300*%
%ADD65R,0.0375X0.0178*%
%ADD66R,0.0178X0.0355*%
%ADD67R,0.0300X0.0350*%
%ADD68R,0.0158X0.0206*%
%ADD69R,0.0206X0.0158*%
%ADD70C,0.0483*%
%ADD71C,0.0651*%
%ADD72R,0.0651X0.0651*%
%ADD73C,0.0414*%
%ADD74C,0.1330*%
%ADD75C,0.0837*%
%ADD76C,0.0070*%
%ADD77C,0.0067*%
D32*
X21980Y41598D02*
X22413D01*
X22197Y41381D02*
Y41814D01*
X21980Y45042D02*
X22413D01*
X22197Y44826D02*
Y45259D01*
X29073Y51400D02*
X29427D01*
X29250Y51223D02*
Y51577D01*
X29073Y50400D02*
X29427D01*
X29250Y50223D02*
Y50577D01*
X28073Y51400D02*
X28427D01*
X28250Y51223D02*
Y51577D01*
X28073Y50400D02*
X28427D01*
X28250Y50223D02*
Y50577D01*
X27073Y50400D02*
X27427D01*
X27250Y50223D02*
Y50577D01*
X27073Y51400D02*
X27427D01*
X27250Y51223D02*
Y51577D01*
X30073Y50400D02*
X30427D01*
X30250Y50223D02*
Y50577D01*
X30073Y51400D02*
X30427D01*
X30250Y51223D02*
Y51577D01*
X23123Y50700D02*
X23477D01*
X23300Y50523D02*
Y50877D01*
X24623Y50700D02*
X24977D01*
X24800Y50523D02*
Y50877D01*
X20625Y51300D02*
X21875D01*
X21250Y50675D02*
Y51925D01*
X30675Y41200D02*
X31925D01*
X31300Y40575D02*
Y41825D01*
X22677Y45370D02*
X22757D01*
X22717Y45330D02*
Y45410D01*
X23620Y44910D02*
X23700D01*
X23660Y44870D02*
Y44950D01*
X23040Y48550D02*
X23120D01*
X23080Y48510D02*
Y48590D01*
X21110Y49060D02*
X21190D01*
X21150Y49020D02*
Y49100D01*
X22278Y48782D02*
X22358D01*
X22318Y48742D02*
Y48822D01*
X25080Y42400D02*
X25160D01*
X25120Y42360D02*
Y42440D01*
X25410Y42320D02*
X25490D01*
X25450Y42280D02*
Y42360D01*
X22034Y44058D02*
X22114D01*
X22074Y44018D02*
Y44098D01*
X22034Y43566D02*
X22114D01*
X22074Y43526D02*
Y43606D01*
X21886Y43074D02*
X21966D01*
X21926Y43034D02*
Y43114D01*
X24290Y43280D02*
X24370D01*
X24330Y43240D02*
Y43320D01*
X22300Y48014D02*
X22380D01*
X22340Y47974D02*
Y48054D01*
X22300Y48270D02*
X22380D01*
X22340Y48230D02*
Y48310D01*
X30635Y47560D02*
X30715D01*
X30675Y47520D02*
Y47600D01*
X28820Y46570D02*
X28900D01*
X28860Y46530D02*
Y46610D01*
X29470Y46788D02*
X29550D01*
X29510Y46748D02*
Y46828D01*
X30242Y45928D02*
X30322D01*
X30282Y45888D02*
Y45968D01*
X31090Y46395D02*
X31170D01*
X31130Y46355D02*
Y46435D01*
X31490Y47486D02*
X31570D01*
X31530Y47446D02*
Y47526D01*
X31088Y46788D02*
X31168D01*
X31128Y46748D02*
Y46828D01*
X26170Y47180D02*
X26250D01*
X26210Y47140D02*
Y47220D01*
X25972Y45040D02*
X26052D01*
X26012Y45000D02*
Y45080D01*
X26169Y45170D02*
X26249D01*
X26209Y45130D02*
Y45210D01*
X23010Y51050D02*
X23090D01*
X23050Y51010D02*
Y51090D01*
X23510Y51050D02*
X23590D01*
X23550Y51010D02*
Y51090D01*
X24010Y51050D02*
X24090D01*
X24050Y51010D02*
Y51090D01*
X27240Y41500D02*
X27320D01*
X27280Y41460D02*
Y41540D01*
X26610Y46005D02*
X26690D01*
X26650Y45965D02*
Y46045D01*
X26620Y46398D02*
X26700D01*
X26660Y46358D02*
Y46438D01*
X26740Y46202D02*
X26820D01*
X26780Y46162D02*
Y46242D01*
X25790Y48920D02*
X25870D01*
X25830Y48880D02*
Y48960D01*
X24070Y48550D02*
X24150D01*
X24110Y48510D02*
Y48590D01*
X22910Y46927D02*
X22990D01*
X22950Y46887D02*
Y46967D01*
X23260Y45147D02*
X23340D01*
X23300Y45107D02*
Y45187D01*
X29070Y43270D02*
X29150D01*
X29110Y43230D02*
Y43310D01*
X31670Y42980D02*
X31750D01*
X31710Y42940D02*
Y43020D01*
X30010Y42090D02*
X30090D01*
X30050Y42050D02*
Y42130D01*
X28910Y42090D02*
X28990D01*
X28950Y42050D02*
Y42130D01*
X28910Y47910D02*
X28990D01*
X28950Y47870D02*
Y47950D01*
X30010Y47910D02*
X30090D01*
X30050Y47870D02*
Y47950D01*
X26510Y42307D02*
X26590D01*
X26550Y42267D02*
Y42347D01*
X27010Y42100D02*
X27090D01*
X27050Y42060D02*
Y42140D01*
X26144Y42056D02*
X26224D01*
X26184Y42016D02*
Y42096D01*
X24360Y42307D02*
X24440D01*
X24400Y42267D02*
Y42347D01*
X26763Y44627D02*
X26843D01*
X26803Y44587D02*
Y44667D01*
X26060Y44050D02*
X26140D01*
X26100Y44010D02*
Y44090D01*
X27760Y47700D02*
X27840D01*
X27800Y47660D02*
Y47740D01*
X27760Y46900D02*
X27840D01*
X27800Y46860D02*
Y46940D01*
X23280Y42430D02*
X23360D01*
X23320Y42390D02*
Y42470D01*
X28460Y47710D02*
X28540D01*
X28500Y47670D02*
Y47750D01*
X28460Y42290D02*
X28540D01*
X28500Y42250D02*
Y42330D01*
X28320Y45610D02*
X28400D01*
X28360Y45570D02*
Y45650D01*
X23010Y50360D02*
X23090D01*
X23050Y50320D02*
Y50400D01*
X24010Y50360D02*
X24090D01*
X24050Y50320D02*
Y50400D01*
X24700Y48753D02*
X24780D01*
X24740Y48713D02*
Y48793D01*
X25972Y47350D02*
X26052D01*
X26012Y47310D02*
Y47390D01*
X25185Y47560D02*
X25265D01*
X25225Y47520D02*
Y47600D01*
X26270Y47520D02*
X26350D01*
X26310Y47480D02*
Y47560D01*
X24890Y45320D02*
X24970D01*
X24930Y45280D02*
Y45360D01*
X24890Y45080D02*
X24970D01*
X24930Y45040D02*
Y45120D01*
X26420Y48360D02*
X26500D01*
X26460Y48320D02*
Y48400D01*
X26780Y47960D02*
X26860D01*
X26820Y47920D02*
Y48000D01*
X27670Y46560D02*
X27750D01*
X27710Y46520D02*
Y46600D01*
X30860Y42790D02*
X30940D01*
X30900Y42750D02*
Y42830D01*
X27630Y41550D02*
X27710D01*
X27670Y41510D02*
Y41590D01*
X27640Y48450D02*
X27720D01*
X27680Y48410D02*
Y48490D01*
X29590Y46188D02*
X29670D01*
X29630Y46148D02*
Y46228D01*
X31400Y44640D02*
X31480D01*
X31440Y44600D02*
Y44680D01*
X25010Y51050D02*
X25090D01*
X25050Y51010D02*
Y51090D01*
X24200Y47383D02*
X24280D01*
X24240Y47343D02*
Y47423D01*
X24242Y46202D02*
X24322D01*
X24282Y46162D02*
Y46242D01*
X28375Y43875D02*
X28455D01*
X28415Y43835D02*
Y43915D01*
X28760Y44260D02*
X28840D01*
X28800Y44220D02*
Y44300D01*
M02*
