%FSLAX24Y24*%
%MOIN*%
G70*
G01*
G75*
G04 Layer_Color=2752767*
%ADD10R,0.0710X0.0300*%
%ADD11R,0.1024X0.0787*%
%ADD12R,0.0532X0.0157*%
%ADD13R,0.0748X0.0630*%
%ADD14R,0.0748X0.0472*%
%ADD15R,0.0787X0.0827*%
%ADD16R,0.0150X0.0200*%
%ADD17R,0.0291X0.0728*%
%ADD18R,0.0787X0.0157*%
%ADD19R,0.0118X0.0472*%
%ADD20R,0.0472X0.0118*%
%ADD21R,0.0236X0.0098*%
%ADD22R,0.0295X0.0472*%
%ADD23R,0.0200X0.0150*%
%ADD24R,0.0300X0.0250*%
%ADD25R,0.0335X0.0138*%
%ADD26R,0.0138X0.0315*%
%ADD27R,0.0250X0.0300*%
%ADD28R,0.0118X0.0165*%
%ADD29R,0.0165X0.0118*%
%ADD30C,0.0100*%
%ADD31C,0.0120*%
%ADD32C,0.0050*%
%ADD33C,0.0060*%
%ADD34C,0.0140*%
%ADD35C,0.0080*%
%ADD36C,0.0098*%
%ADD37C,0.0160*%
%ADD38C,0.0433*%
%ADD39C,0.0591*%
%ADD40R,0.0591X0.0591*%
%ADD41C,0.0354*%
%ADD42C,0.1250*%
%ADD43C,0.0180*%
%ADD44C,0.0200*%
%ADD45C,0.0300*%
%ADD46R,0.1120X0.1120*%
%ADD47C,0.0787*%
%ADD48C,0.0059*%
%ADD49R,0.0760X0.0350*%
%ADD50R,0.1074X0.0837*%
%ADD51R,0.0582X0.0207*%
%ADD52R,0.0798X0.0680*%
%ADD53R,0.0798X0.0522*%
%ADD54R,0.0837X0.0877*%
%ADD55R,0.0200X0.0250*%
%ADD56R,0.0341X0.0778*%
%ADD57R,0.0837X0.0207*%
%ADD58R,0.0168X0.0522*%
%ADD59R,0.0522X0.0168*%
%ADD60R,0.0286X0.0148*%
%ADD61R,0.0345X0.0522*%
%ADD62R,0.0190X0.0240*%
%ADD63R,0.0250X0.0200*%
%ADD64R,0.0350X0.0300*%
%ADD65R,0.0375X0.0178*%
%ADD66R,0.0178X0.0355*%
%ADD67R,0.0300X0.0350*%
%ADD68R,0.0158X0.0206*%
%ADD69R,0.0206X0.0158*%
%ADD70C,0.0483*%
%ADD71C,0.0651*%
%ADD72R,0.0651X0.0651*%
%ADD73C,0.0414*%
%ADD74C,0.1330*%
%ADD75C,0.0837*%
%ADD76C,0.0070*%
%ADD77C,0.0067*%
D32*
X21997Y41398D02*
Y41798D01*
X22397D01*
Y41398D01*
X21997D01*
Y44842D02*
Y45242D01*
X22397D01*
Y44842D01*
X21997D01*
X23300Y50500D02*
X23100Y50900D01*
X23500D01*
X23300Y50500D01*
X24800D02*
X24600Y50900D01*
X25000D01*
X24800Y50500D01*
X21250Y51100D02*
X21350Y51200D01*
X21450D01*
X21350Y51300D01*
X21450Y51400D01*
X21350D01*
X21250Y51500D01*
X21150Y51400D01*
X21050D01*
X21150Y51300D01*
X21050Y51200D01*
X21150D01*
X21250Y51100D01*
X31300Y41000D02*
X31400Y41100D01*
X31500D01*
X31400Y41200D01*
X31500Y41300D01*
X31400D01*
X31300Y41400D01*
X31200Y41300D01*
X31100D01*
X31200Y41200D01*
X31100Y41100D01*
X31200D01*
X31300Y41000D01*
X22517Y45170D02*
X22617Y45370D01*
X22517Y45570D01*
X22717Y45470D01*
X22917Y45570D01*
X22817Y45370D01*
X22917Y45170D01*
X22717Y45270D01*
X22517Y45170D01*
X23460Y44710D02*
X23560Y44910D01*
X23460Y45110D01*
X23660Y45010D01*
X23860Y45110D01*
X23760Y44910D01*
X23860Y44710D01*
X23660Y44810D01*
X23460Y44710D01*
X22880Y48350D02*
X22980Y48550D01*
X22880Y48750D01*
X23080Y48650D01*
X23280Y48750D01*
X23180Y48550D01*
X23280Y48350D01*
X23080Y48450D01*
X22880Y48350D01*
X20950Y48860D02*
X21050Y49060D01*
X20950Y49260D01*
X21150Y49160D01*
X21350Y49260D01*
X21250Y49060D01*
X21350Y48860D01*
X21150Y48960D01*
X20950Y48860D01*
X22118Y48582D02*
X22218Y48782D01*
X22118Y48982D01*
X22318Y48882D01*
X22518Y48982D01*
X22418Y48782D01*
X22518Y48582D01*
X22318Y48682D01*
X22118Y48582D01*
X24920Y42200D02*
X25020Y42400D01*
X24920Y42600D01*
X25120Y42500D01*
X25320Y42600D01*
X25220Y42400D01*
X25320Y42200D01*
X25120Y42300D01*
X24920Y42200D01*
X25250Y42120D02*
X25350Y42320D01*
X25250Y42520D01*
X25450Y42420D01*
X25650Y42520D01*
X25550Y42320D01*
X25650Y42120D01*
X25450Y42220D01*
X25250Y42120D01*
X21874Y43858D02*
X21974Y44058D01*
X21874Y44258D01*
X22074Y44158D01*
X22274Y44258D01*
X22174Y44058D01*
X22274Y43858D01*
X22074Y43958D01*
X21874Y43858D01*
Y43366D02*
X21974Y43566D01*
X21874Y43766D01*
X22074Y43666D01*
X22274Y43766D01*
X22174Y43566D01*
X22274Y43366D01*
X22074Y43466D01*
X21874Y43366D01*
X21726Y42874D02*
X21826Y43074D01*
X21726Y43274D01*
X21926Y43174D01*
X22126Y43274D01*
X22026Y43074D01*
X22126Y42874D01*
X21926Y42974D01*
X21726Y42874D01*
X24130Y43080D02*
X24230Y43280D01*
X24130Y43480D01*
X24330Y43380D01*
X24530Y43480D01*
X24430Y43280D01*
X24530Y43080D01*
X24330Y43180D01*
X24130Y43080D01*
X22140Y47814D02*
X22240Y48014D01*
X22140Y48214D01*
X22340Y48114D01*
X22540Y48214D01*
X22440Y48014D01*
X22540Y47814D01*
X22340Y47914D01*
X22140Y47814D01*
Y48070D02*
X22240Y48270D01*
X22140Y48470D01*
X22340Y48370D01*
X22540Y48470D01*
X22440Y48270D01*
X22540Y48070D01*
X22340Y48170D01*
X22140Y48070D01*
X30475Y47360D02*
X30575Y47560D01*
X30475Y47760D01*
X30675Y47660D01*
X30875Y47760D01*
X30775Y47560D01*
X30875Y47360D01*
X30675Y47460D01*
X30475Y47360D01*
X28660Y46370D02*
X28760Y46570D01*
X28660Y46770D01*
X28860Y46670D01*
X29060Y46770D01*
X28960Y46570D01*
X29060Y46370D01*
X28860Y46470D01*
X28660Y46370D01*
X29310Y46588D02*
X29410Y46788D01*
X29310Y46988D01*
X29510Y46888D01*
X29710Y46988D01*
X29610Y46788D01*
X29710Y46588D01*
X29510Y46688D01*
X29310Y46588D01*
X30082Y45728D02*
X30182Y45928D01*
X30082Y46128D01*
X30282Y46028D01*
X30482Y46128D01*
X30382Y45928D01*
X30482Y45728D01*
X30282Y45828D01*
X30082Y45728D01*
X30930Y46195D02*
X31030Y46395D01*
X30930Y46595D01*
X31130Y46495D01*
X31330Y46595D01*
X31230Y46395D01*
X31330Y46195D01*
X31130Y46295D01*
X30930Y46195D01*
X31330Y47286D02*
X31430Y47486D01*
X31330Y47686D01*
X31530Y47586D01*
X31730Y47686D01*
X31630Y47486D01*
X31730Y47286D01*
X31530Y47386D01*
X31330Y47286D01*
X30928Y46588D02*
X31028Y46788D01*
X30928Y46988D01*
X31128Y46888D01*
X31328Y46988D01*
X31228Y46788D01*
X31328Y46588D01*
X31128Y46688D01*
X30928Y46588D01*
X26010Y46980D02*
X26110Y47180D01*
X26010Y47380D01*
X26210Y47280D01*
X26410Y47380D01*
X26310Y47180D01*
X26410Y46980D01*
X26210Y47080D01*
X26010Y46980D01*
X25812Y44840D02*
X25912Y45040D01*
X25812Y45240D01*
X26012Y45140D01*
X26212Y45240D01*
X26112Y45040D01*
X26212Y44840D01*
X26012Y44940D01*
X25812Y44840D01*
X26009Y44970D02*
X26109Y45170D01*
X26009Y45370D01*
X26209Y45270D01*
X26409Y45370D01*
X26309Y45170D01*
X26409Y44970D01*
X26209Y45070D01*
X26009Y44970D01*
X22850Y50850D02*
X22950Y51050D01*
X22850Y51250D01*
X23050Y51150D01*
X23250Y51250D01*
X23150Y51050D01*
X23250Y50850D01*
X23050Y50950D01*
X22850Y50850D01*
X23350D02*
X23450Y51050D01*
X23350Y51250D01*
X23550Y51150D01*
X23750Y51250D01*
X23650Y51050D01*
X23750Y50850D01*
X23550Y50950D01*
X23350Y50850D01*
X23850D02*
X23950Y51050D01*
X23850Y51250D01*
X24050Y51150D01*
X24250Y51250D01*
X24150Y51050D01*
X24250Y50850D01*
X24050Y50950D01*
X23850Y50850D01*
X27080Y41300D02*
X27180Y41500D01*
X27080Y41700D01*
X27280Y41600D01*
X27480Y41700D01*
X27380Y41500D01*
X27480Y41300D01*
X27280Y41400D01*
X27080Y41300D01*
X26450Y45805D02*
X26550Y46005D01*
X26450Y46205D01*
X26650Y46105D01*
X26850Y46205D01*
X26750Y46005D01*
X26850Y45805D01*
X26650Y45905D01*
X26450Y45805D01*
X26460Y46198D02*
X26560Y46398D01*
X26460Y46598D01*
X26660Y46498D01*
X26860Y46598D01*
X26760Y46398D01*
X26860Y46198D01*
X26660Y46298D01*
X26460Y46198D01*
X26580Y46002D02*
X26680Y46202D01*
X26580Y46402D01*
X26780Y46302D01*
X26980Y46402D01*
X26880Y46202D01*
X26980Y46002D01*
X26780Y46102D01*
X26580Y46002D01*
X25630Y48720D02*
X25730Y48920D01*
X25630Y49120D01*
X25830Y49020D01*
X26030Y49120D01*
X25930Y48920D01*
X26030Y48720D01*
X25830Y48820D01*
X25630Y48720D01*
X23910Y48350D02*
X24010Y48550D01*
X23910Y48750D01*
X24110Y48650D01*
X24310Y48750D01*
X24210Y48550D01*
X24310Y48350D01*
X24110Y48450D01*
X23910Y48350D01*
X22750Y46727D02*
X22850Y46927D01*
X22750Y47127D01*
X22950Y47027D01*
X23150Y47127D01*
X23050Y46927D01*
X23150Y46727D01*
X22950Y46827D01*
X22750Y46727D01*
X23100Y44947D02*
X23200Y45147D01*
X23100Y45347D01*
X23300Y45247D01*
X23500Y45347D01*
X23400Y45147D01*
X23500Y44947D01*
X23300Y45047D01*
X23100Y44947D01*
X28910Y43070D02*
X29010Y43270D01*
X28910Y43470D01*
X29110Y43370D01*
X29310Y43470D01*
X29210Y43270D01*
X29310Y43070D01*
X29110Y43170D01*
X28910Y43070D01*
X31510Y42780D02*
X31610Y42980D01*
X31510Y43180D01*
X31710Y43080D01*
X31910Y43180D01*
X31810Y42980D01*
X31910Y42780D01*
X31710Y42880D01*
X31510Y42780D01*
X29850Y41890D02*
X29950Y42090D01*
X29850Y42290D01*
X30050Y42190D01*
X30250Y42290D01*
X30150Y42090D01*
X30250Y41890D01*
X30050Y41990D01*
X29850Y41890D01*
X28750D02*
X28850Y42090D01*
X28750Y42290D01*
X28950Y42190D01*
X29150Y42290D01*
X29050Y42090D01*
X29150Y41890D01*
X28950Y41990D01*
X28750Y41890D01*
X28750Y47710D02*
X28850Y47910D01*
X28750Y48110D01*
X28950Y48010D01*
X29150Y48110D01*
X29050Y47910D01*
X29150Y47710D01*
X28950Y47810D01*
X28750Y47710D01*
X29850D02*
X29950Y47910D01*
X29850Y48110D01*
X30050Y48010D01*
X30250Y48110D01*
X30150Y47910D01*
X30250Y47710D01*
X30050Y47810D01*
X29850Y47710D01*
X26350Y42107D02*
X26450Y42307D01*
X26350Y42507D01*
X26550Y42407D01*
X26750Y42507D01*
X26650Y42307D01*
X26750Y42107D01*
X26550Y42207D01*
X26350Y42107D01*
X26850Y41900D02*
X26950Y42100D01*
X26850Y42300D01*
X27050Y42200D01*
X27250Y42300D01*
X27150Y42100D01*
X27250Y41900D01*
X27050Y42000D01*
X26850Y41900D01*
X25984Y41856D02*
X26084Y42056D01*
X25984Y42256D01*
X26184Y42156D01*
X26384Y42256D01*
X26284Y42056D01*
X26384Y41856D01*
X26184Y41956D01*
X25984Y41856D01*
X24200Y42107D02*
X24300Y42307D01*
X24200Y42507D01*
X24400Y42407D01*
X24600Y42507D01*
X24500Y42307D01*
X24600Y42107D01*
X24400Y42207D01*
X24200Y42107D01*
X26603Y44427D02*
X26703Y44627D01*
X26603Y44827D01*
X26803Y44727D01*
X27003Y44827D01*
X26903Y44627D01*
X27003Y44427D01*
X26803Y44527D01*
X26603Y44427D01*
X25900Y43850D02*
X26000Y44050D01*
X25900Y44250D01*
X26100Y44150D01*
X26300Y44250D01*
X26200Y44050D01*
X26300Y43850D01*
X26100Y43950D01*
X25900Y43850D01*
X27600Y47500D02*
X27700Y47700D01*
X27600Y47900D01*
X27800Y47800D01*
X28000Y47900D01*
X27900Y47700D01*
X28000Y47500D01*
X27800Y47600D01*
X27600Y47500D01*
Y46700D02*
X27700Y46900D01*
X27600Y47100D01*
X27800Y47000D01*
X28000Y47100D01*
X27900Y46900D01*
X28000Y46700D01*
X27800Y46800D01*
X27600Y46700D01*
X23120Y42230D02*
X23220Y42430D01*
X23120Y42630D01*
X23320Y42530D01*
X23520Y42630D01*
X23420Y42430D01*
X23520Y42230D01*
X23320Y42330D01*
X23120Y42230D01*
X28300Y47510D02*
X28400Y47710D01*
X28300Y47910D01*
X28500Y47810D01*
X28700Y47910D01*
X28600Y47710D01*
X28700Y47510D01*
X28500Y47610D01*
X28300Y47510D01*
X28300Y42090D02*
X28400Y42290D01*
X28300Y42490D01*
X28500Y42390D01*
X28700Y42490D01*
X28600Y42290D01*
X28700Y42090D01*
X28500Y42190D01*
X28300Y42090D01*
X28160Y45410D02*
X28260Y45610D01*
X28160Y45810D01*
X28360Y45710D01*
X28560Y45810D01*
X28460Y45610D01*
X28560Y45410D01*
X28360Y45510D01*
X28160Y45410D01*
X22850Y50160D02*
X22950Y50360D01*
X22850Y50560D01*
X23050Y50460D01*
X23250Y50560D01*
X23150Y50360D01*
X23250Y50160D01*
X23050Y50260D01*
X22850Y50160D01*
X23850D02*
X23950Y50360D01*
X23850Y50560D01*
X24050Y50460D01*
X24250Y50560D01*
X24150Y50360D01*
X24250Y50160D01*
X24050Y50260D01*
X23850Y50160D01*
X24540Y48553D02*
X24640Y48753D01*
X24540Y48953D01*
X24740Y48853D01*
X24940Y48953D01*
X24840Y48753D01*
X24940Y48553D01*
X24740Y48653D01*
X24540Y48553D01*
X25812Y47150D02*
X25912Y47350D01*
X25812Y47550D01*
X26012Y47450D01*
X26212Y47550D01*
X26112Y47350D01*
X26212Y47150D01*
X26012Y47250D01*
X25812Y47150D01*
X25025Y47360D02*
X25125Y47560D01*
X25025Y47760D01*
X25225Y47660D01*
X25425Y47760D01*
X25325Y47560D01*
X25425Y47360D01*
X25225Y47460D01*
X25025Y47360D01*
X26110Y47320D02*
X26210Y47520D01*
X26110Y47720D01*
X26310Y47620D01*
X26510Y47720D01*
X26410Y47520D01*
X26510Y47320D01*
X26310Y47420D01*
X26110Y47320D01*
X24730Y45120D02*
X24830Y45320D01*
X24730Y45520D01*
X24930Y45420D01*
X25130Y45520D01*
X25030Y45320D01*
X25130Y45120D01*
X24930Y45220D01*
X24730Y45120D01*
Y44880D02*
X24830Y45080D01*
X24730Y45280D01*
X24930Y45180D01*
X25130Y45280D01*
X25030Y45080D01*
X25130Y44880D01*
X24930Y44980D01*
X24730Y44880D01*
X26260Y48160D02*
X26360Y48360D01*
X26260Y48560D01*
X26460Y48460D01*
X26660Y48560D01*
X26560Y48360D01*
X26660Y48160D01*
X26460Y48260D01*
X26260Y48160D01*
X26620Y47760D02*
X26720Y47960D01*
X26620Y48160D01*
X26820Y48060D01*
X27020Y48160D01*
X26920Y47960D01*
X27020Y47760D01*
X26820Y47860D01*
X26620Y47760D01*
X27510Y46360D02*
X27610Y46560D01*
X27510Y46760D01*
X27710Y46660D01*
X27910Y46760D01*
X27810Y46560D01*
X27910Y46360D01*
X27710Y46460D01*
X27510Y46360D01*
X30700Y42590D02*
X30800Y42790D01*
X30700Y42990D01*
X30900Y42890D01*
X31100Y42990D01*
X31000Y42790D01*
X31100Y42590D01*
X30900Y42690D01*
X30700Y42590D01*
X27470Y41350D02*
X27570Y41550D01*
X27470Y41750D01*
X27670Y41650D01*
X27870Y41750D01*
X27770Y41550D01*
X27870Y41350D01*
X27670Y41450D01*
X27470Y41350D01*
X27480Y48250D02*
X27580Y48450D01*
X27480Y48650D01*
X27680Y48550D01*
X27880Y48650D01*
X27780Y48450D01*
X27880Y48250D01*
X27680Y48350D01*
X27480Y48250D01*
X29430Y45988D02*
X29530Y46188D01*
X29430Y46388D01*
X29630Y46288D01*
X29830Y46388D01*
X29730Y46188D01*
X29830Y45988D01*
X29630Y46088D01*
X29430Y45988D01*
X31240Y44440D02*
X31340Y44640D01*
X31240Y44840D01*
X31440Y44740D01*
X31640Y44840D01*
X31540Y44640D01*
X31640Y44440D01*
X31440Y44540D01*
X31240Y44440D01*
X24850Y50850D02*
X24950Y51050D01*
X24850Y51250D01*
X25050Y51150D01*
X25250Y51250D01*
X25150Y51050D01*
X25250Y50850D01*
X25050Y50950D01*
X24850Y50850D01*
X24040Y47183D02*
X24140Y47383D01*
X24040Y47583D01*
X24240Y47483D01*
X24440Y47583D01*
X24340Y47383D01*
X24440Y47183D01*
X24240Y47283D01*
X24040Y47183D01*
X24082Y46002D02*
X24182Y46202D01*
X24082Y46402D01*
X24282Y46302D01*
X24482Y46402D01*
X24382Y46202D01*
X24482Y46002D01*
X24282Y46102D01*
X24082Y46002D01*
X28215Y43675D02*
X28315Y43875D01*
X28215Y44075D01*
X28415Y43975D01*
X28615Y44075D01*
X28515Y43875D01*
X28615Y43675D01*
X28415Y43775D01*
X28215Y43675D01*
X28600Y44060D02*
X28700Y44260D01*
X28600Y44460D01*
X28800Y44360D01*
X29000Y44460D01*
X28900Y44260D01*
X29000Y44060D01*
X28800Y44160D01*
X28600Y44060D01*
D77*
X29450Y51400D02*
G03*
X29450Y51400I-200J0D01*
G01*
Y50400D02*
G03*
X29450Y50400I-200J0D01*
G01*
X28450Y51400D02*
G03*
X28450Y51400I-200J0D01*
G01*
Y50400D02*
G03*
X28450Y50400I-200J0D01*
G01*
X27450D02*
G03*
X27450Y50400I-200J0D01*
G01*
Y51400D02*
G03*
X27450Y51400I-200J0D01*
G01*
X30450Y50400D02*
G03*
X30450Y50400I-200J0D01*
G01*
Y51400D02*
G03*
X30450Y51400I-200J0D01*
G01*
M02*
