%FSLAX24Y24*%
%MOIN*%
G70*
G01*
G75*
%ADD10R,0.0710X0.0300*%
%ADD11R,0.1024X0.0787*%
%ADD12R,0.0532X0.0157*%
%ADD13R,0.0748X0.0630*%
%ADD14R,0.0748X0.0472*%
%ADD15R,0.0787X0.0827*%
%ADD16R,0.0150X0.0200*%
%ADD17R,0.0291X0.0728*%
%ADD18R,0.0787X0.0157*%
%ADD19R,0.0118X0.0472*%
%ADD20R,0.0472X0.0118*%
%ADD21R,0.0236X0.0098*%
%ADD22R,0.0295X0.0472*%
%ADD23R,0.0200X0.0150*%
%ADD24R,0.0300X0.0250*%
%ADD25R,0.0335X0.0138*%
%ADD26R,0.0138X0.0315*%
%ADD27R,0.0250X0.0300*%
%ADD28R,0.0118X0.0165*%
%ADD29R,0.0165X0.0118*%
%ADD30C,0.0100*%
%ADD31C,0.0120*%
%ADD32C,0.0050*%
%ADD33C,0.0060*%
%ADD34C,0.0140*%
%ADD35C,0.0080*%
%ADD36C,0.0098*%
%ADD37C,0.0160*%
%ADD38C,0.0433*%
%ADD39C,0.0591*%
%ADD40R,0.0591X0.0591*%
%ADD41C,0.0354*%
%ADD42C,0.1250*%
%ADD43C,0.0180*%
%ADD44C,0.0200*%
%ADD45C,0.0300*%
%ADD46R,0.1120X0.1120*%
%ADD47C,0.0787*%
D10*
X22630Y42582D02*
D03*
Y43074D02*
D03*
Y43566D02*
D03*
Y44058D02*
D03*
D11*
X20630Y41580D02*
D03*
Y45060D02*
D03*
D12*
X21830Y48782D02*
D03*
Y48526D02*
D03*
Y48270D02*
D03*
Y48014D02*
D03*
Y47758D02*
D03*
D13*
X20777Y46656D02*
D03*
Y49884D02*
D03*
D14*
Y48605D02*
D03*
Y47935D02*
D03*
D15*
X21702Y49490D02*
D03*
Y47050D02*
D03*
D16*
X29260Y46790D02*
D03*
X28860D02*
D03*
X23710Y42640D02*
D03*
X24110D02*
D03*
X24720Y42630D02*
D03*
X25120D02*
D03*
X23710Y43040D02*
D03*
X24110D02*
D03*
X29700Y41500D02*
D03*
X29300D02*
D03*
X26700Y44050D02*
D03*
X26300D02*
D03*
X24340Y48550D02*
D03*
X24740D02*
D03*
X23300Y45370D02*
D03*
X22900D02*
D03*
X23300Y45760D02*
D03*
X22900D02*
D03*
X29700Y48500D02*
D03*
X29300D02*
D03*
X31320Y46190D02*
D03*
X31720D02*
D03*
X23300Y46210D02*
D03*
X22900D02*
D03*
X25220Y48550D02*
D03*
X25620D02*
D03*
X28170Y45260D02*
D03*
X27770D02*
D03*
X28170Y45610D02*
D03*
X27770D02*
D03*
X28170Y45960D02*
D03*
X27770D02*
D03*
D17*
X23050Y49863D02*
D03*
Y51537D02*
D03*
X23550Y49863D02*
D03*
Y51537D02*
D03*
X24050Y49863D02*
D03*
Y51537D02*
D03*
X24550Y49863D02*
D03*
X25050D02*
D03*
X24550Y51537D02*
D03*
X25050D02*
D03*
D18*
X22950Y47622D02*
D03*
X22950Y47150D02*
D03*
X22950Y46678D02*
D03*
D19*
X24437Y47973D02*
D03*
X24634D02*
D03*
X24831D02*
D03*
X25028D02*
D03*
X25225D02*
D03*
X25422D02*
D03*
X25618D02*
D03*
X25815D02*
D03*
X26012D02*
D03*
X26209D02*
D03*
X26406D02*
D03*
X26603D02*
D03*
X24437Y44627D02*
D03*
X24634D02*
D03*
X24831D02*
D03*
X25028D02*
D03*
X25225D02*
D03*
X25422D02*
D03*
X25618D02*
D03*
X25815D02*
D03*
X26012D02*
D03*
X26209D02*
D03*
X26406D02*
D03*
X26603D02*
D03*
D20*
X23847Y47383D02*
D03*
Y47186D02*
D03*
Y46989D02*
D03*
Y46792D02*
D03*
Y46595D02*
D03*
Y46398D02*
D03*
Y46202D02*
D03*
Y46005D02*
D03*
Y45808D02*
D03*
Y45611D02*
D03*
Y45414D02*
D03*
Y45217D02*
D03*
X27193Y45217D02*
D03*
Y45414D02*
D03*
Y45611D02*
D03*
Y45808D02*
D03*
Y46005D02*
D03*
Y46202D02*
D03*
Y46398D02*
D03*
Y46595D02*
D03*
Y46792D02*
D03*
Y46989D02*
D03*
Y47186D02*
D03*
Y47383D02*
D03*
D21*
X25903Y41544D02*
D03*
Y41800D02*
D03*
Y42056D02*
D03*
X24997D02*
D03*
Y41800D02*
D03*
Y41544D02*
D03*
D22*
X25450Y41800D02*
D03*
D23*
X27050Y41500D02*
D03*
Y41900D02*
D03*
X23320Y42640D02*
D03*
Y43040D02*
D03*
X24090Y44050D02*
D03*
Y43650D02*
D03*
X23730Y44050D02*
D03*
Y43650D02*
D03*
X28950Y41500D02*
D03*
Y41900D02*
D03*
X30050Y41500D02*
D03*
Y41900D02*
D03*
X31710Y43570D02*
D03*
Y43170D02*
D03*
X27800Y47500D02*
D03*
Y47100D02*
D03*
X24680Y43650D02*
D03*
Y44050D02*
D03*
X29110Y43860D02*
D03*
Y43460D02*
D03*
X25030Y43650D02*
D03*
Y44050D02*
D03*
X25380Y43650D02*
D03*
Y44050D02*
D03*
X28950Y48500D02*
D03*
Y48100D02*
D03*
X30050Y48500D02*
D03*
Y48100D02*
D03*
X23370Y44050D02*
D03*
Y43650D02*
D03*
D24*
X26550Y41550D02*
D03*
Y42050D02*
D03*
X24400Y41550D02*
D03*
Y42050D02*
D03*
X28500Y41550D02*
D03*
Y42050D02*
D03*
X28500Y48450D02*
D03*
Y47950D02*
D03*
X31530Y46740D02*
D03*
Y47240D02*
D03*
D25*
X29632Y43368D02*
D03*
Y43565D02*
D03*
Y43762D02*
D03*
Y43958D02*
D03*
Y44155D02*
D03*
Y44352D02*
D03*
X31188Y43368D02*
D03*
Y43565D02*
D03*
Y43762D02*
D03*
Y43958D02*
D03*
Y44155D02*
D03*
Y44352D02*
D03*
D26*
X29918Y43073D02*
D03*
X30115D02*
D03*
X30312D02*
D03*
X30508D02*
D03*
X30705D02*
D03*
X30902D02*
D03*
Y44647D02*
D03*
X30705D02*
D03*
X30508D02*
D03*
X30312D02*
D03*
X30115D02*
D03*
X29918D02*
D03*
D27*
X23830Y48550D02*
D03*
X23330D02*
D03*
D28*
X30282Y47192D02*
D03*
X30478D02*
D03*
X30675Y47190D02*
D03*
X30478Y46188D02*
D03*
X30282D02*
D03*
X30085Y46188D02*
D03*
X30675Y46188D02*
D03*
X30085Y47192D02*
D03*
D29*
X30882Y46788D02*
D03*
Y46592D02*
D03*
Y46395D02*
D03*
X29878Y46592D02*
D03*
Y46788D02*
D03*
Y46985D02*
D03*
Y46395D02*
D03*
X30882Y46985D02*
D03*
D38*
X22197Y41598D02*
D03*
Y45042D02*
D03*
D39*
X29250Y51400D02*
D03*
Y50400D02*
D03*
X28250Y51400D02*
D03*
Y50400D02*
D03*
X27250Y51400D02*
D03*
X30250Y50400D02*
D03*
Y51400D02*
D03*
D40*
X27250Y50400D02*
D03*
D41*
X23300Y50700D02*
D03*
X24800D02*
D03*
D42*
X21250Y51300D02*
D03*
X31300Y41200D02*
D03*
M02*
