%FSLAX24Y24*%
%MOIN*%
G70*
G01*
G75*
G04 Layer_Physical_Order=4*
G04 Layer_Color=16711680*
%ADD10R,0.0710X0.0300*%
%ADD11R,0.1024X0.0787*%
%ADD12R,0.0532X0.0157*%
%ADD13R,0.0748X0.0630*%
%ADD14R,0.0748X0.0472*%
%ADD15R,0.0787X0.0827*%
%ADD16R,0.0150X0.0200*%
%ADD17R,0.0291X0.0728*%
%ADD18R,0.0787X0.0157*%
%ADD19R,0.0118X0.0472*%
%ADD20R,0.0472X0.0118*%
%ADD21R,0.0236X0.0098*%
%ADD22R,0.0295X0.0472*%
%ADD23R,0.0200X0.0150*%
%ADD24R,0.0300X0.0250*%
%ADD25R,0.0335X0.0138*%
%ADD26R,0.0138X0.0315*%
%ADD27R,0.0250X0.0300*%
%ADD28R,0.0118X0.0165*%
%ADD29R,0.0165X0.0118*%
%ADD30C,0.0100*%
%ADD31C,0.0120*%
%ADD32C,0.0050*%
%ADD33C,0.0060*%
%ADD34C,0.0140*%
%ADD35C,0.0080*%
%ADD36C,0.0098*%
%ADD37C,0.0160*%
%ADD38C,0.0433*%
%ADD39C,0.0591*%
%ADD40R,0.0591X0.0591*%
%ADD41C,0.0354*%
%ADD42C,0.1250*%
%ADD43C,0.0180*%
%ADD44C,0.0200*%
%ADD45C,0.0300*%
%ADD46R,0.1120X0.1120*%
%ADD47C,0.0787*%
D31*
X23950Y42430D02*
X25500Y43980D01*
X23320Y42430D02*
X23950D01*
X25500Y43980D02*
Y44000D01*
X27000Y43110D02*
Y44000D01*
X27010Y43990D01*
X27000Y43110D02*
X27280Y42830D01*
Y41500D02*
Y42830D01*
X24740Y48753D02*
X24993Y48500D01*
X25500D01*
D32*
X23660Y44910D02*
X24330Y44240D01*
Y43280D02*
Y44240D01*
X27000Y47790D02*
Y48500D01*
X26490Y47280D02*
X27000Y47790D01*
X26490Y46568D02*
Y47280D01*
Y46568D02*
X26660Y46398D01*
X27000Y46422D02*
Y47000D01*
X26780Y46202D02*
X27000Y46422D01*
X26650Y45850D02*
X27000Y45500D01*
X26650Y45850D02*
Y46005D01*
X31830Y46620D02*
Y48590D01*
X31605Y46395D02*
X31830Y46620D01*
X31130Y46395D02*
X31605D01*
X25225Y47560D02*
X25430D01*
X26012Y45040D02*
Y47350D01*
X25430Y47560D02*
X25500Y47490D01*
Y47000D02*
Y47490D01*
X28250Y51400D02*
X28740Y50910D01*
Y50010D02*
Y50910D01*
X28250Y49880D02*
Y50400D01*
X25070Y47870D02*
X25920D01*
X25111Y47770D02*
X25961D01*
X26209Y45170D02*
Y47180D01*
X30980Y49440D02*
X31830Y48590D01*
X28270Y49540D02*
X28740Y50010D01*
X28010Y49640D02*
X28250Y49880D01*
X26930Y49440D02*
X30980D01*
X26889Y49540D02*
X28270D01*
X26847Y49640D02*
X28010D01*
X25961Y47770D02*
X26210Y48019D01*
X25920Y47870D02*
X26110Y48060D01*
X26310Y47520D02*
Y48277D01*
X26295Y48292D02*
X26310Y48277D01*
X26210Y48019D02*
Y48235D01*
X26195Y48250D02*
X26210Y48235D01*
X26110Y48060D02*
Y48194D01*
X26095Y48209D02*
X26110Y48194D01*
X26095Y48209D02*
Y48888D01*
X26195Y48250D02*
Y48846D01*
X26295Y48292D02*
Y48805D01*
X26930Y49440D01*
X26195Y48846D02*
X26889Y49540D01*
X26095Y48888D02*
X26847Y49640D01*
X28360Y45610D02*
X28938Y46188D01*
X29630D01*
X24640Y51050D02*
X25050D01*
X25500Y45417D02*
Y45500D01*
X24282Y45208D02*
Y46203D01*
X24770Y45480D02*
X24930Y45320D01*
X24770Y45480D02*
Y47429D01*
X25111Y47770D01*
X24670Y45340D02*
Y47470D01*
Y45340D02*
X24930Y45080D01*
X24670Y47470D02*
X25070Y47870D01*
X24282Y46203D02*
X24460Y46382D01*
Y50870D01*
X24640Y51050D01*
X24575Y44915D02*
X24998D01*
X24282Y45208D02*
X24575Y44915D01*
X24998D02*
X25500Y45417D01*
X28415Y43875D02*
X28800Y44260D01*
X28805Y44255D01*
X28800Y44260D02*
X28820D01*
D33*
X21820Y47190D02*
X22550Y47920D01*
X21820Y44312D02*
Y47190D01*
Y44312D02*
X22074Y44058D01*
X21650Y47324D02*
X22340Y48014D01*
X21650Y43990D02*
Y47324D01*
Y43990D02*
X22074Y43566D01*
X22550Y47920D02*
Y48060D01*
X22340Y48270D02*
X22550Y48060D01*
D34*
X21400Y43600D02*
X21926Y43074D01*
X21400Y47864D02*
X22318Y48782D01*
X21400Y43600D02*
Y47864D01*
X29510Y47560D02*
X30675D01*
X29510Y46788D02*
Y47560D01*
D38*
X22197Y41598D02*
D03*
Y45042D02*
D03*
D39*
X29250Y51400D02*
D03*
Y50400D02*
D03*
X28250Y51400D02*
D03*
Y50400D02*
D03*
X27250Y51400D02*
D03*
X30250Y50400D02*
D03*
Y51400D02*
D03*
D40*
X27250Y50400D02*
D03*
D41*
X23300Y50700D02*
D03*
X24800D02*
D03*
D42*
X21250Y51300D02*
D03*
X31300Y41200D02*
D03*
D43*
X22717Y45370D02*
D03*
X23660Y44910D02*
D03*
X23080Y48550D02*
D03*
X21150Y49060D02*
D03*
X22318Y48782D02*
D03*
X25120Y42400D02*
D03*
X25450Y42320D02*
D03*
X22074Y44058D02*
D03*
Y43566D02*
D03*
X21926Y43074D02*
D03*
X24330Y43280D02*
D03*
X22340Y48014D02*
D03*
Y48270D02*
D03*
X30675Y47560D02*
D03*
X28860Y46570D02*
D03*
X29510Y46788D02*
D03*
X30282Y45928D02*
D03*
X31130Y46395D02*
D03*
X31530Y47486D02*
D03*
X31128Y46788D02*
D03*
X26210Y47180D02*
D03*
X26012Y45040D02*
D03*
X26209Y45170D02*
D03*
X23050Y51050D02*
D03*
X23550D02*
D03*
X24050D02*
D03*
X27280Y41500D02*
D03*
X26650Y46005D02*
D03*
X26660Y46398D02*
D03*
X26780Y46202D02*
D03*
X25830Y48920D02*
D03*
X24110Y48550D02*
D03*
X22950Y46927D02*
D03*
X23300Y45147D02*
D03*
X29110Y43270D02*
D03*
X31710Y42980D02*
D03*
X30050Y42090D02*
D03*
X28950D02*
D03*
X28950Y47910D02*
D03*
X30050D02*
D03*
X26550Y42307D02*
D03*
X27050Y42100D02*
D03*
X26184Y42056D02*
D03*
X24400Y42307D02*
D03*
X26803Y44627D02*
D03*
X26100Y44050D02*
D03*
X27800Y47700D02*
D03*
Y46900D02*
D03*
X23320Y42430D02*
D03*
X28500Y47710D02*
D03*
X28500Y42290D02*
D03*
X28360Y45610D02*
D03*
X23050Y50360D02*
D03*
X24050D02*
D03*
X24740Y48753D02*
D03*
X26012Y47350D02*
D03*
X25225Y47560D02*
D03*
X26310Y47520D02*
D03*
X24930Y45320D02*
D03*
Y45080D02*
D03*
X26460Y48360D02*
D03*
X26820Y47960D02*
D03*
X27710Y46560D02*
D03*
X30900Y42790D02*
D03*
X27670Y41550D02*
D03*
X27680Y48450D02*
D03*
X29630Y46188D02*
D03*
X31440Y44640D02*
D03*
X25050Y51050D02*
D03*
X24240Y47383D02*
D03*
X24282Y46202D02*
D03*
X28415Y43875D02*
D03*
X28800Y44260D02*
D03*
D47*
X25500Y44000D02*
D03*
Y48500D02*
D03*
X27000Y45500D02*
D03*
Y47000D02*
D03*
Y48500D02*
D03*
X25500Y45500D02*
D03*
Y47000D02*
D03*
X27000Y44000D02*
D03*
M02*
