%FSLAX24Y24*%
%MOIN*%
G70*
G01*
G75*
%ADD10R,0.0710X0.0300*%
%ADD11R,0.1024X0.0787*%
%ADD12R,0.0532X0.0157*%
%ADD13R,0.0748X0.0630*%
%ADD14R,0.0748X0.0472*%
%ADD15R,0.0787X0.0827*%
%ADD16R,0.0150X0.0200*%
%ADD17R,0.0291X0.0728*%
%ADD18R,0.0787X0.0157*%
%ADD19R,0.0118X0.0472*%
%ADD20R,0.0472X0.0118*%
%ADD21R,0.0236X0.0098*%
%ADD22R,0.0295X0.0472*%
%ADD23R,0.0200X0.0150*%
%ADD24R,0.0300X0.0250*%
%ADD25R,0.0335X0.0138*%
%ADD26R,0.0138X0.0315*%
%ADD27R,0.0250X0.0300*%
%ADD28R,0.0118X0.0165*%
%ADD29R,0.0165X0.0118*%
%ADD30C,0.0100*%
%ADD31C,0.0120*%
%ADD32C,0.0050*%
%ADD33C,0.0060*%
%ADD34C,0.0140*%
%ADD35C,0.0080*%
%ADD36C,0.0098*%
%ADD37C,0.0160*%
%ADD38C,0.0433*%
%ADD39C,0.0591*%
%ADD40R,0.0591X0.0591*%
%ADD41C,0.0354*%
%ADD42C,0.1250*%
%ADD43C,0.0180*%
%ADD44C,0.0200*%
%ADD45C,0.0300*%
%ADD46R,0.1120X0.1120*%
%ADD47C,0.0787*%
%ADD48C,0.0059*%
G36*
X29760Y46985D02*
X29602Y46867D01*
Y47103D01*
X29760Y46985D01*
D02*
G37*
G36*
X30902Y44844D02*
X30764Y45021D01*
X31040D01*
X30902Y44844D01*
D02*
G37*
G36*
X26237Y41406D02*
X26060Y41544D01*
X26237Y41682D01*
Y41406D01*
D02*
G37*
G36*
X22731Y49854D02*
X22416Y49617D01*
Y50090D01*
X22731Y49854D01*
D02*
G37*
G36*
X27486Y49426D02*
X27014D01*
X27250Y49741D01*
X27486Y49426D01*
D02*
G37*
G36*
X23857Y47550D02*
X23719Y47727D01*
X23994D01*
X23857Y47550D01*
D02*
G37*
D33*
X21820Y50450D02*
X21720D01*
X21770D01*
Y50200D01*
X21720Y50150D01*
X21670D01*
X21620Y50200D01*
X22120Y50150D02*
X21920D01*
X22120Y50350D01*
Y50400D01*
X22070Y50450D01*
X21970D01*
X21920Y50400D01*
X28830Y47240D02*
X28780Y47290D01*
X28680D01*
X28630Y47240D01*
Y47040D01*
X28680Y46990D01*
X28780D01*
X28830Y47040D01*
X29130Y46990D02*
X28930D01*
X29130Y47190D01*
Y47240D01*
X29080Y47290D01*
X28980D01*
X28930Y47240D01*
X29230D02*
X29280Y47290D01*
X29380D01*
X29430Y47240D01*
Y47190D01*
X29380Y47140D01*
X29330D01*
X29380D01*
X29430Y47090D01*
Y47040D01*
X29380Y46990D01*
X29280D01*
X29230Y47040D01*
X26200Y50200D02*
Y50100D01*
Y50150D01*
X26450D01*
X26500Y50100D01*
Y50050D01*
X26450Y50000D01*
X26500Y50450D02*
X26200D01*
X26350Y50300D01*
Y50500D01*
X22750Y48200D02*
Y48150D01*
X22850Y48050D01*
X22950Y48150D01*
Y48200D01*
X22850Y48050D02*
Y47900D01*
X23050D02*
X23150D01*
X23100D01*
Y48200D01*
X23050Y48150D01*
X22150Y41200D02*
X22050D01*
X22100D01*
Y40950D01*
X22050Y40900D01*
X22000D01*
X21950Y40950D01*
X22250Y40900D02*
X22350D01*
X22300D01*
Y41200D01*
X22250Y41150D01*
X22350Y50650D02*
Y50550D01*
Y50600D01*
X22600D01*
X22650Y50550D01*
Y50500D01*
X22600Y50450D01*
X22400Y50750D02*
X22350Y50800D01*
Y50900D01*
X22400Y50950D01*
X22450D01*
X22500Y50900D01*
Y50850D01*
Y50900D01*
X22550Y50950D01*
X22600D01*
X22650Y50900D01*
Y50800D01*
X22600Y50750D01*
X30080Y47720D02*
Y47470D01*
X30130Y47420D01*
X30230D01*
X30280Y47470D01*
Y47720D01*
X30530Y47420D02*
Y47720D01*
X30380Y47570D01*
X30580D01*
X30160Y42810D02*
Y42560D01*
X30210Y42510D01*
X30310D01*
X30360Y42560D01*
Y42810D01*
X30460Y42760D02*
X30510Y42810D01*
X30610D01*
X30660Y42760D01*
Y42710D01*
X30610Y42660D01*
X30560D01*
X30610D01*
X30660Y42610D01*
Y42560D01*
X30610Y42510D01*
X30510D01*
X30460Y42560D01*
X25250Y41250D02*
Y41000D01*
X25300Y40950D01*
X25400D01*
X25450Y41000D01*
Y41250D01*
X25750Y40950D02*
X25550D01*
X25750Y41150D01*
Y41200D01*
X25700Y41250D01*
X25600D01*
X25550Y41200D01*
X23770Y48200D02*
Y47950D01*
X23820Y47900D01*
X23920D01*
X23970Y47950D01*
Y48200D01*
X24070Y47900D02*
X24170D01*
X24120D01*
Y48200D01*
X24070Y48150D01*
X28470Y45860D02*
Y46160D01*
X28620D01*
X28670Y46110D01*
Y46010D01*
X28620Y45960D01*
X28470D01*
X28570D02*
X28670Y45860D01*
X28770Y45910D02*
X28820Y45860D01*
X28920D01*
X28970Y45910D01*
Y46110D01*
X28920Y46160D01*
X28820D01*
X28770Y46110D01*
Y46060D01*
X28820Y46010D01*
X28970D01*
X28470Y45460D02*
Y45760D01*
X28620D01*
X28670Y45710D01*
Y45610D01*
X28620Y45560D01*
X28470D01*
X28570D02*
X28670Y45460D01*
X28770Y45710D02*
X28820Y45760D01*
X28920D01*
X28970Y45710D01*
Y45660D01*
X28920Y45610D01*
X28970Y45560D01*
Y45510D01*
X28920Y45460D01*
X28820D01*
X28770Y45510D01*
Y45560D01*
X28820Y45610D01*
X28770Y45660D01*
Y45710D01*
X28820Y45610D02*
X28920D01*
X28470Y45060D02*
Y45360D01*
X28620D01*
X28670Y45310D01*
Y45210D01*
X28620Y45160D01*
X28470D01*
X28570D02*
X28670Y45060D01*
X28770Y45360D02*
X28970D01*
Y45310D01*
X28770Y45110D01*
Y45060D01*
X25170Y48750D02*
Y49050D01*
X25320D01*
X25370Y49000D01*
Y48900D01*
X25320Y48850D01*
X25170D01*
X25270D02*
X25370Y48750D01*
X25670Y49050D02*
X25570Y49000D01*
X25470Y48900D01*
Y48800D01*
X25520Y48750D01*
X25620D01*
X25670Y48800D01*
Y48850D01*
X25620Y48900D01*
X25470D01*
X25580Y42950D02*
X25280D01*
Y43100D01*
X25330Y43150D01*
X25430D01*
X25480Y43100D01*
Y42950D01*
Y43050D02*
X25580Y43150D01*
X25280Y43450D02*
Y43250D01*
X25430D01*
X25380Y43350D01*
Y43400D01*
X25430Y43450D01*
X25530D01*
X25580Y43400D01*
Y43300D01*
X25530Y43250D01*
X25180Y42950D02*
X24880D01*
Y43100D01*
X24930Y43150D01*
X25030D01*
X25080Y43100D01*
Y42950D01*
Y43050D02*
X25180Y43150D01*
Y43400D02*
X24880D01*
X25030Y43250D01*
Y43450D01*
X24780Y42950D02*
X24480D01*
Y43100D01*
X24530Y43150D01*
X24630D01*
X24680Y43100D01*
Y42950D01*
Y43050D02*
X24780Y43150D01*
X24530Y43250D02*
X24480Y43300D01*
Y43400D01*
X24530Y43450D01*
X24580D01*
X24630Y43400D01*
Y43350D01*
Y43400D01*
X24680Y43450D01*
X24730D01*
X24780Y43400D01*
Y43300D01*
X24730Y43250D01*
X23880Y44230D02*
X23580D01*
Y44380D01*
X23630Y44430D01*
X23730D01*
X23780Y44380D01*
Y44230D01*
Y44330D02*
X23880Y44430D01*
Y44730D02*
Y44530D01*
X23680Y44730D01*
X23630D01*
X23580Y44680D01*
Y44580D01*
X23630Y44530D01*
X24280Y44230D02*
X23980D01*
Y44380D01*
X24030Y44430D01*
X24130D01*
X24180Y44380D01*
Y44230D01*
Y44330D02*
X24280Y44430D01*
Y44530D02*
Y44630D01*
Y44580D01*
X23980D01*
X24030Y44530D01*
X29350Y48700D02*
X29650D01*
Y48900D01*
Y49150D02*
X29350D01*
X29500Y49000D01*
Y49200D01*
X29350Y40800D02*
X29650D01*
Y41000D01*
X29400Y41100D02*
X29350Y41150D01*
Y41250D01*
X29400Y41300D01*
X29450D01*
X29500Y41250D01*
Y41200D01*
Y41250D01*
X29550Y41300D01*
X29600D01*
X29650Y41250D01*
Y41150D01*
X29600Y41100D01*
X23630Y42000D02*
Y41700D01*
X23830D01*
X24130D02*
X23930D01*
X24130Y41900D01*
Y41950D01*
X24080Y42000D01*
X23980D01*
X23930Y41950D01*
X23630Y42420D02*
Y42120D01*
X23830D01*
X23930D02*
X24030D01*
X23980D01*
Y42420D01*
X23930Y42370D01*
X31430Y47840D02*
X31380Y47790D01*
Y47690D01*
X31430Y47640D01*
X31630D01*
X31680Y47690D01*
Y47790D01*
X31630Y47840D01*
X31680Y48140D02*
Y47940D01*
X31480Y48140D01*
X31430D01*
X31380Y48090D01*
Y47990D01*
X31430Y47940D01*
X31680Y48440D02*
Y48240D01*
X31480Y48440D01*
X31430D01*
X31380Y48390D01*
Y48290D01*
X31430Y48240D01*
X22220Y46300D02*
X22170Y46350D01*
X22070D01*
X22020Y46300D01*
Y46100D01*
X22070Y46050D01*
X22170D01*
X22220Y46100D01*
X22520Y46050D02*
X22320D01*
X22520Y46250D01*
Y46300D01*
X22470Y46350D01*
X22370D01*
X22320Y46300D01*
X22620Y46050D02*
X22720D01*
X22670D01*
Y46350D01*
X22620Y46300D01*
X28400Y48900D02*
X28350Y48850D01*
Y48750D01*
X28400Y48700D01*
X28600D01*
X28650Y48750D01*
Y48850D01*
X28600Y48900D01*
X28650Y49200D02*
Y49000D01*
X28450Y49200D01*
X28400D01*
X28350Y49150D01*
Y49050D01*
X28400Y49000D01*
Y49300D02*
X28350Y49350D01*
Y49450D01*
X28400Y49500D01*
X28600D01*
X28650Y49450D01*
Y49350D01*
X28600Y49300D01*
X28400D01*
X28850Y48900D02*
X28800Y48850D01*
Y48750D01*
X28850Y48700D01*
X29050D01*
X29100Y48750D01*
Y48850D01*
X29050Y48900D01*
X29100Y49000D02*
Y49100D01*
Y49050D01*
X28800D01*
X28850Y49000D01*
X29050Y49250D02*
X29100Y49300D01*
Y49400D01*
X29050Y49450D01*
X28850D01*
X28800Y49400D01*
Y49300D01*
X28850Y49250D01*
X28900D01*
X28950Y49300D01*
Y49450D01*
X29950Y48900D02*
X29900Y48850D01*
Y48750D01*
X29950Y48700D01*
X30150D01*
X30200Y48750D01*
Y48850D01*
X30150Y48900D01*
X30200Y49000D02*
Y49100D01*
Y49050D01*
X29900D01*
X29950Y49000D01*
Y49250D02*
X29900Y49300D01*
Y49400D01*
X29950Y49450D01*
X30000D01*
X30050Y49400D01*
X30100Y49450D01*
X30150D01*
X30200Y49400D01*
Y49300D01*
X30150Y49250D01*
X30100D01*
X30050Y49300D01*
X30000Y49250D01*
X29950D01*
X30050Y49300D02*
Y49400D01*
X31360Y45940D02*
X31310Y45990D01*
X31210D01*
X31160Y45940D01*
Y45740D01*
X31210Y45690D01*
X31310D01*
X31360Y45740D01*
X31460Y45690D02*
X31560D01*
X31510D01*
Y45990D01*
X31460Y45940D01*
X31710Y45990D02*
X31910D01*
Y45940D01*
X31710Y45740D01*
Y45690D01*
X22750Y44610D02*
X22700Y44560D01*
Y44460D01*
X22750Y44410D01*
X22950D01*
X23000Y44460D01*
Y44560D01*
X22950Y44610D01*
X23000Y44710D02*
Y44810D01*
Y44760D01*
X22700D01*
X22750Y44710D01*
X22700Y45160D02*
X22750Y45060D01*
X22850Y44960D01*
X22950D01*
X23000Y45010D01*
Y45110D01*
X22950Y45160D01*
X22900D01*
X22850Y45110D01*
Y44960D01*
X22170Y45860D02*
X22120Y45910D01*
X22020D01*
X21970Y45860D01*
Y45660D01*
X22020Y45610D01*
X22120D01*
X22170Y45660D01*
X22270Y45610D02*
X22370D01*
X22320D01*
Y45910D01*
X22270Y45860D01*
X22720Y45910D02*
X22520D01*
Y45760D01*
X22620Y45810D01*
X22670D01*
X22720Y45760D01*
Y45660D01*
X22670Y45610D01*
X22570D01*
X22520Y45660D01*
X29010Y44260D02*
X28960Y44210D01*
Y44110D01*
X29010Y44060D01*
X29210D01*
X29260Y44110D01*
Y44210D01*
X29210Y44260D01*
X29260Y44360D02*
Y44460D01*
Y44410D01*
X28960D01*
X29010Y44360D01*
X29260Y44760D02*
X28960D01*
X29110Y44610D01*
Y44810D01*
X28050Y47150D02*
X28000Y47100D01*
Y47000D01*
X28050Y46950D01*
X28250D01*
X28300Y47000D01*
Y47100D01*
X28250Y47150D01*
X28300Y47250D02*
Y47350D01*
Y47300D01*
X28000D01*
X28050Y47250D01*
Y47500D02*
X28000Y47550D01*
Y47650D01*
X28050Y47700D01*
X28100D01*
X28150Y47650D01*
Y47600D01*
Y47650D01*
X28200Y47700D01*
X28250D01*
X28300Y47650D01*
Y47550D01*
X28250Y47500D01*
X26350Y43800D02*
X26300Y43850D01*
X26200D01*
X26150Y43800D01*
Y43600D01*
X26200Y43550D01*
X26300D01*
X26350Y43600D01*
X26450Y43550D02*
X26550D01*
X26500D01*
Y43850D01*
X26450Y43800D01*
X26900Y43550D02*
X26700D01*
X26900Y43750D01*
Y43800D01*
X26850Y43850D01*
X26750D01*
X26700Y43800D01*
X24390Y49000D02*
X24340Y49050D01*
X24240D01*
X24190Y49000D01*
Y48800D01*
X24240Y48750D01*
X24340D01*
X24390Y48800D01*
X24490Y48750D02*
X24590D01*
X24540D01*
Y49050D01*
X24490Y49000D01*
X24740Y48750D02*
X24840D01*
X24790D01*
Y49050D01*
X24740Y49000D01*
X23380Y49050D02*
X23330Y49100D01*
X23230D01*
X23180Y49050D01*
Y48850D01*
X23230Y48800D01*
X23330D01*
X23380Y48850D01*
X23480Y48800D02*
X23580D01*
X23530D01*
Y49100D01*
X23480Y49050D01*
X23730D02*
X23780Y49100D01*
X23880D01*
X23930Y49050D01*
Y48850D01*
X23880Y48800D01*
X23780D01*
X23730Y48850D01*
Y49050D01*
X28400Y41000D02*
X28350Y40950D01*
Y40850D01*
X28400Y40800D01*
X28600D01*
X28650Y40850D01*
Y40950D01*
X28600Y41000D01*
Y41100D02*
X28650Y41150D01*
Y41250D01*
X28600Y41300D01*
X28400D01*
X28350Y41250D01*
Y41150D01*
X28400Y41100D01*
X28450D01*
X28500Y41150D01*
Y41300D01*
X28850Y41000D02*
X28800Y40950D01*
Y40850D01*
X28850Y40800D01*
X29050D01*
X29100Y40850D01*
Y40950D01*
X29050Y41000D01*
X28850Y41100D02*
X28800Y41150D01*
Y41250D01*
X28850Y41300D01*
X28900D01*
X28950Y41250D01*
X29000Y41300D01*
X29050D01*
X29100Y41250D01*
Y41150D01*
X29050Y41100D01*
X29000D01*
X28950Y41150D01*
X28900Y41100D01*
X28850D01*
X28950Y41150D02*
Y41250D01*
X29950Y41000D02*
X29900Y40950D01*
Y40850D01*
X29950Y40800D01*
X30150D01*
X30200Y40850D01*
Y40950D01*
X30150Y41000D01*
X29900Y41100D02*
Y41300D01*
X29950D01*
X30150Y41100D01*
X30200D01*
X31610Y43970D02*
X31560Y43920D01*
Y43820D01*
X31610Y43770D01*
X31810D01*
X31860Y43820D01*
Y43920D01*
X31810Y43970D01*
X31560Y44270D02*
X31610Y44170D01*
X31710Y44070D01*
X31810D01*
X31860Y44120D01*
Y44220D01*
X31810Y44270D01*
X31760D01*
X31710Y44220D01*
Y44070D01*
X26950Y41000D02*
X26900Y40950D01*
Y40850D01*
X26950Y40800D01*
X27150D01*
X27200Y40850D01*
Y40950D01*
X27150Y41000D01*
X26900Y41300D02*
Y41100D01*
X27050D01*
X27000Y41200D01*
Y41250D01*
X27050Y41300D01*
X27150D01*
X27200Y41250D01*
Y41150D01*
X27150Y41100D01*
X26450Y41000D02*
X26400Y40950D01*
Y40850D01*
X26450Y40800D01*
X26650D01*
X26700Y40850D01*
Y40950D01*
X26650Y41000D01*
X26700Y41250D02*
X26400D01*
X26550Y41100D01*
Y41300D01*
X24300Y41000D02*
X24250Y40950D01*
Y40850D01*
X24300Y40800D01*
X24500D01*
X24550Y40850D01*
Y40950D01*
X24500Y41000D01*
X24300Y41100D02*
X24250Y41150D01*
Y41250D01*
X24300Y41300D01*
X24350D01*
X24400Y41250D01*
Y41200D01*
Y41250D01*
X24450Y41300D01*
X24500D01*
X24550Y41250D01*
Y41150D01*
X24500Y41100D01*
X25490Y42730D02*
X25440Y42780D01*
X25340D01*
X25290Y42730D01*
Y42530D01*
X25340Y42480D01*
X25440D01*
X25490Y42530D01*
X25790Y42480D02*
X25590D01*
X25790Y42680D01*
Y42730D01*
X25740Y42780D01*
X25640D01*
X25590Y42730D01*
X23220Y42130D02*
X23170Y42080D01*
Y41980D01*
X23220Y41930D01*
X23420D01*
X23470Y41980D01*
Y42080D01*
X23420Y42130D01*
X23470Y42230D02*
Y42330D01*
Y42280D01*
X23170D01*
X23220Y42230D01*
X23470Y44230D02*
X23170D01*
Y44380D01*
X23220Y44430D01*
X23320D01*
X23370Y44380D01*
Y44230D01*
Y44330D02*
X23470Y44430D01*
Y44530D02*
Y44630D01*
Y44580D01*
X23170D01*
X23220Y44530D01*
Y44780D02*
X23170Y44830D01*
Y44930D01*
X23220Y44980D01*
X23420D01*
X23470Y44930D01*
Y44830D01*
X23420Y44780D01*
X23220D01*
X31050Y50550D02*
X31000Y50500D01*
Y50400D01*
X31050Y50350D01*
X31250D01*
X31300Y50400D01*
Y50500D01*
X31250Y50550D01*
X31150D01*
Y50450D01*
X31300Y50650D02*
X31000D01*
Y50800D01*
X31050Y50850D01*
X31150D01*
X31200Y50800D01*
Y50650D01*
X31000Y50950D02*
Y51050D01*
Y51000D01*
X31300D01*
Y50950D01*
Y51050D01*
X31000Y51350D02*
Y51250D01*
X31050Y51200D01*
X31250D01*
X31300Y51250D01*
Y51350D01*
X31250Y51400D01*
X31050D01*
X31000Y51350D01*
X20360Y46050D02*
Y45800D01*
X20410Y45750D01*
X20510D01*
X20560Y45800D01*
Y46050D01*
X20860Y46000D02*
X20810Y46050D01*
X20710D01*
X20660Y46000D01*
Y45950D01*
X20710Y45900D01*
X20810D01*
X20860Y45850D01*
Y45800D01*
X20810Y45750D01*
X20710D01*
X20660Y45800D01*
X20960Y46050D02*
Y45750D01*
X21110D01*
X21160Y45800D01*
Y45850D01*
X21110Y45900D01*
X20960D01*
X21110D01*
X21160Y45950D01*
Y46000D01*
X21110Y46050D01*
X20960D01*
X25500Y50450D02*
X25450Y50400D01*
Y50300D01*
X25500Y50250D01*
X25550D01*
X25600Y50300D01*
Y50400D01*
X25650Y50450D01*
X25700D01*
X25750Y50400D01*
Y50300D01*
X25700Y50250D01*
X25450Y50550D02*
X25750D01*
X25650Y50650D01*
X25750Y50750D01*
X25450D01*
Y50850D02*
X25750D01*
Y51000D01*
X25700Y51050D01*
X25500D01*
X25450Y51000D01*
Y50850D01*
D35*
X26650Y49849D02*
Y51950D01*
Y49849D02*
X30852D01*
Y51950D01*
X26650D02*
X30852D01*
D48*
X22410Y41351D02*
Y42355D01*
X21217Y41351D02*
X22410D01*
X21217Y45289D02*
X22410D01*
Y44285D02*
Y45289D01*
X20181Y42052D02*
Y44596D01*
X20157Y49983D02*
X20334D01*
X20157Y46557D02*
Y49983D01*
X21220D02*
X22174D01*
X21220Y46557D02*
X22174D01*
Y49983D01*
X20157Y46557D02*
X20334D01*
X22790Y49401D02*
Y51999D01*
Y49401D02*
X25310D01*
X22790Y51999D02*
X25310D01*
Y49401D02*
Y51999D01*
X23206Y47475D02*
X23206Y47298D01*
X23206Y47002D02*
X23206Y46825D01*
X22694Y47475D02*
X22694Y47298D01*
X22694Y47002D02*
X22694Y46825D01*
X22694Y47780D02*
X23206D01*
X22694Y46520D02*
X23206D01*
X26721Y44922D02*
X26898D01*
Y45099D01*
X24142Y44922D02*
Y45099D01*
Y44922D02*
X24319D01*
X26898Y47501D02*
Y47678D01*
X26721D02*
X26898D01*
X24142Y47501D02*
Y47678D01*
X24319D01*
X24958Y42233D02*
X25942D01*
Y42174D02*
Y42233D01*
X24958Y42174D02*
Y42233D01*
X25942Y41367D02*
Y41426D01*
X24958Y41367D02*
Y41426D01*
Y41367D02*
X25942D01*
X31040Y43073D02*
X31197D01*
Y43230D01*
X29623Y43073D02*
Y43230D01*
Y43073D02*
X29780D01*
X29623Y44647D02*
X29780D01*
X29623Y44490D02*
Y44647D01*
X31040D02*
X31197D01*
Y44490D02*
Y44647D01*
X30793Y47281D02*
X30971D01*
Y47103D02*
Y47281D01*
Y46099D02*
Y46277D01*
X30793Y46099D02*
X30971D01*
X29789D02*
X29967D01*
X29789D02*
Y46277D01*
Y47281D02*
X29967D01*
X29789Y47103D02*
Y47281D01*
M02*
