%FSLAX24Y24*%
%MOIN*%
G70*
G01*
G75*
G04 Layer_Physical_Order=1*
G04 Layer_Color=255*
%ADD10R,0.0710X0.0300*%
%ADD11R,0.1024X0.0787*%
%ADD12R,0.0532X0.0157*%
%ADD13R,0.0748X0.0630*%
%ADD14R,0.0748X0.0472*%
%ADD15R,0.0787X0.0827*%
%ADD16R,0.0150X0.0200*%
%ADD17R,0.0291X0.0728*%
%ADD18R,0.0787X0.0157*%
%ADD19R,0.0118X0.0472*%
%ADD20R,0.0472X0.0118*%
%ADD21R,0.0236X0.0098*%
%ADD22R,0.0295X0.0472*%
%ADD23R,0.0200X0.0150*%
%ADD24R,0.0300X0.0250*%
%ADD25R,0.0335X0.0138*%
%ADD26R,0.0138X0.0315*%
%ADD27R,0.0250X0.0300*%
%ADD28R,0.0118X0.0165*%
%ADD29R,0.0165X0.0118*%
%ADD30C,0.0100*%
%ADD31C,0.0120*%
%ADD32C,0.0050*%
%ADD33C,0.0060*%
%ADD34C,0.0140*%
%ADD35C,0.0080*%
%ADD36C,0.0098*%
%ADD37C,0.0160*%
%ADD38C,0.0433*%
%ADD39C,0.0591*%
%ADD40R,0.0591X0.0591*%
%ADD41C,0.0354*%
%ADD42C,0.1250*%
%ADD43C,0.0180*%
D10*
X22630Y42582D02*
D03*
Y43074D02*
D03*
Y43566D02*
D03*
Y44058D02*
D03*
D11*
X20630Y41580D02*
D03*
Y45060D02*
D03*
D12*
X21830Y48782D02*
D03*
Y48526D02*
D03*
Y48270D02*
D03*
Y48014D02*
D03*
Y47758D02*
D03*
D13*
X20777Y46656D02*
D03*
Y49884D02*
D03*
D14*
Y48605D02*
D03*
Y47935D02*
D03*
D15*
X21702Y49490D02*
D03*
Y47050D02*
D03*
D16*
X29260Y46790D02*
D03*
X28860D02*
D03*
X23710Y42640D02*
D03*
X24110D02*
D03*
X24720Y42630D02*
D03*
X25120D02*
D03*
X23710Y43040D02*
D03*
X24110D02*
D03*
X29700Y41500D02*
D03*
X29300D02*
D03*
X26700Y44050D02*
D03*
X26300D02*
D03*
X24340Y48550D02*
D03*
X24740D02*
D03*
X23300Y45370D02*
D03*
X22900D02*
D03*
X23300Y45760D02*
D03*
X22900D02*
D03*
X29700Y48500D02*
D03*
X29300D02*
D03*
X31320Y46190D02*
D03*
X31720D02*
D03*
X23300Y46210D02*
D03*
X22900D02*
D03*
X25220Y48550D02*
D03*
X25620D02*
D03*
X28170Y45260D02*
D03*
X27770D02*
D03*
X28170Y45610D02*
D03*
X27770D02*
D03*
X28170Y45960D02*
D03*
X27770D02*
D03*
D17*
X23050Y49863D02*
D03*
Y51537D02*
D03*
X23550Y49863D02*
D03*
Y51537D02*
D03*
X24050Y49863D02*
D03*
Y51537D02*
D03*
X24550Y49863D02*
D03*
X25050D02*
D03*
X24550Y51537D02*
D03*
X25050D02*
D03*
D18*
X22950Y47622D02*
D03*
X22950Y47150D02*
D03*
X22950Y46678D02*
D03*
D19*
X24437Y47973D02*
D03*
X24634D02*
D03*
X24831D02*
D03*
X25028D02*
D03*
X25225D02*
D03*
X25422D02*
D03*
X25618D02*
D03*
X25815D02*
D03*
X26012D02*
D03*
X26209D02*
D03*
X26406D02*
D03*
X26603D02*
D03*
X24437Y44627D02*
D03*
X24634D02*
D03*
X24831D02*
D03*
X25028D02*
D03*
X25225D02*
D03*
X25422D02*
D03*
X25618D02*
D03*
X25815D02*
D03*
X26012D02*
D03*
X26209D02*
D03*
X26406D02*
D03*
X26603D02*
D03*
D20*
X23847Y47383D02*
D03*
Y47186D02*
D03*
Y46989D02*
D03*
Y46792D02*
D03*
Y46595D02*
D03*
Y46398D02*
D03*
Y46202D02*
D03*
Y46005D02*
D03*
Y45808D02*
D03*
Y45611D02*
D03*
Y45414D02*
D03*
Y45217D02*
D03*
X27193Y45217D02*
D03*
Y45414D02*
D03*
Y45611D02*
D03*
Y45808D02*
D03*
Y46005D02*
D03*
Y46202D02*
D03*
Y46398D02*
D03*
Y46595D02*
D03*
Y46792D02*
D03*
Y46989D02*
D03*
Y47186D02*
D03*
Y47383D02*
D03*
D21*
X25903Y41544D02*
D03*
Y41800D02*
D03*
Y42056D02*
D03*
X24997D02*
D03*
Y41800D02*
D03*
Y41544D02*
D03*
D22*
X25450Y41800D02*
D03*
D23*
X27050Y41500D02*
D03*
Y41900D02*
D03*
X23320Y42640D02*
D03*
Y43040D02*
D03*
X24090Y44050D02*
D03*
Y43650D02*
D03*
X23730Y44050D02*
D03*
Y43650D02*
D03*
X28950Y41500D02*
D03*
Y41900D02*
D03*
X30050Y41500D02*
D03*
Y41900D02*
D03*
X31710Y43570D02*
D03*
Y43170D02*
D03*
X27800Y47500D02*
D03*
Y47100D02*
D03*
X24680Y43650D02*
D03*
Y44050D02*
D03*
X29110Y43860D02*
D03*
Y43460D02*
D03*
X25030Y43650D02*
D03*
Y44050D02*
D03*
X25380Y43650D02*
D03*
Y44050D02*
D03*
X28950Y48500D02*
D03*
Y48100D02*
D03*
X30050Y48500D02*
D03*
Y48100D02*
D03*
X23370Y44050D02*
D03*
Y43650D02*
D03*
D24*
X26550Y41550D02*
D03*
Y42050D02*
D03*
X24400Y41550D02*
D03*
Y42050D02*
D03*
X28500Y41550D02*
D03*
Y42050D02*
D03*
X28500Y48450D02*
D03*
Y47950D02*
D03*
X31530Y46740D02*
D03*
Y47240D02*
D03*
D25*
X29632Y43368D02*
D03*
Y43565D02*
D03*
Y43762D02*
D03*
Y43958D02*
D03*
Y44155D02*
D03*
Y44352D02*
D03*
X31188Y43368D02*
D03*
Y43565D02*
D03*
Y43762D02*
D03*
Y43958D02*
D03*
Y44155D02*
D03*
Y44352D02*
D03*
D26*
X29918Y43073D02*
D03*
X30115D02*
D03*
X30312D02*
D03*
X30508D02*
D03*
X30705D02*
D03*
X30902D02*
D03*
Y44647D02*
D03*
X30705D02*
D03*
X30508D02*
D03*
X30312D02*
D03*
X30115D02*
D03*
X29918D02*
D03*
D27*
X23830Y48550D02*
D03*
X23330D02*
D03*
D28*
X30282Y47192D02*
D03*
X30478D02*
D03*
X30675Y47190D02*
D03*
X30478Y46188D02*
D03*
X30282D02*
D03*
X30085Y46188D02*
D03*
X30675Y46188D02*
D03*
X30085Y47192D02*
D03*
D29*
X30882Y46788D02*
D03*
Y46592D02*
D03*
Y46395D02*
D03*
X29878Y46592D02*
D03*
Y46788D02*
D03*
Y46985D02*
D03*
Y46395D02*
D03*
X30882Y46985D02*
D03*
D30*
X22900Y46005D02*
X23847D01*
X22900D02*
Y46210D01*
Y45760D02*
Y46005D01*
X28860Y46570D02*
Y46790D01*
X29270Y46788D02*
X29878D01*
X30882Y46985D02*
X31835D01*
X31352Y46592D02*
X31480Y46720D01*
X31318Y46188D02*
X31320Y46190D01*
X30675Y46188D02*
X31318D01*
X31530Y47240D02*
Y47486D01*
X30882Y46788D02*
X31128D01*
X24340Y48390D02*
Y48550D01*
Y48390D02*
X24437Y48293D01*
Y47973D02*
Y48293D01*
X24740Y48390D02*
Y48550D01*
X24634Y48284D02*
X24740Y48390D01*
X24634Y47973D02*
Y48284D01*
X23297Y45760D02*
X23510D01*
X23560Y45810D02*
X23845D01*
X23510Y45760D02*
X23560Y45810D01*
X23845D02*
X23847Y45808D01*
X30882Y46592D02*
X31352D01*
X31720Y46190D02*
X31850D01*
X30675Y47190D02*
Y47560D01*
X23847Y47383D02*
X24240D01*
X31850Y46190D02*
X31900Y46240D01*
Y46920D01*
X31835Y46985D02*
X31900Y46920D01*
D31*
X22900Y45370D02*
Y45760D01*
X22717Y45370D02*
X22900D01*
X30902Y42790D02*
Y43069D01*
X27610Y47100D02*
X27800D01*
X27524Y47186D02*
X27610Y47100D01*
X27193Y47186D02*
X27524D01*
X27620Y47500D02*
X27800D01*
X27503Y47383D02*
X27620Y47500D01*
X27193Y47383D02*
X27503D01*
X25620Y48710D02*
X25830Y48920D01*
X25620Y48553D02*
Y48710D01*
X23080Y48550D02*
X23327D01*
X22950Y46927D02*
Y47150D01*
X23300Y45147D02*
Y45370D01*
Y45760D01*
X29388Y43762D02*
X29632D01*
X29110Y43460D02*
X29300D01*
X29405Y43565D01*
X29632D01*
X29110Y43270D02*
Y43460D01*
X31710Y42980D02*
Y43170D01*
X31188Y43565D02*
X31705D01*
X30050Y41900D02*
Y42090D01*
X28950Y41900D02*
Y42090D01*
X28950Y47910D02*
Y48100D01*
X30050Y47910D02*
Y48100D01*
X26550Y42050D02*
Y42307D01*
X27050Y41900D02*
Y42100D01*
X24400Y42050D02*
Y42307D01*
X25448Y41802D02*
Y42320D01*
X24490Y43037D02*
X24493Y43040D01*
X26603Y44627D02*
X26803D01*
X26100Y44050D02*
X26300D01*
X27800Y47500D02*
Y47700D01*
Y46900D02*
Y47100D01*
X28500Y47710D02*
Y47950D01*
X26300Y44050D02*
Y44200D01*
X26406Y44306D01*
Y44627D01*
X26700Y44050D02*
Y44200D01*
X26603Y44297D02*
X26700Y44200D01*
X26603Y44297D02*
Y44627D01*
X28500Y48450D02*
X28550Y48500D01*
X23320Y42430D02*
Y42640D01*
X28500Y42050D02*
Y42290D01*
X29110Y43860D02*
X29290D01*
X29388Y43762D01*
X24740Y48553D02*
Y48753D01*
X29918Y42762D02*
Y43073D01*
Y42762D02*
X30450Y42230D01*
Y41640D02*
Y42230D01*
X30310Y41500D02*
X30450Y41640D01*
X30050Y41500D02*
X30310D01*
X27680Y48450D02*
X27680Y48450D01*
X30902Y44647D02*
X31417D01*
D32*
X23480Y45090D02*
X23660Y44910D01*
X24521Y43440D02*
X24951D01*
X25431Y42960D01*
X25030Y43503D02*
X25473Y43060D01*
X25030Y43503D02*
Y43650D01*
X25473Y43060D02*
X27309D01*
X25431Y42960D02*
X27350D01*
X25390Y42860D02*
X29110D01*
X24970Y43280D02*
X25390Y42860D01*
X24330Y43280D02*
X24970D01*
X24440Y43521D02*
Y44130D01*
Y43521D02*
X24521Y43440D01*
X23480Y45520D02*
X23571Y45611D01*
X23480Y45090D02*
Y45520D01*
X29165Y46985D02*
X29878D01*
X28170Y45960D02*
X28410D01*
X26012Y44627D02*
Y45040D01*
X26209Y44627D02*
Y45170D01*
X30882Y46395D02*
X31130D01*
X27473Y45217D02*
X27650Y45040D01*
X31770Y44429D02*
Y44911D01*
X31670Y44470D02*
Y44870D01*
X31497Y44155D02*
X31770Y44429D01*
X31550Y44350D02*
X31670Y44470D01*
X31188Y44155D02*
X31497D01*
X31280Y44350D02*
X31550D01*
X25830Y43400D02*
Y43680D01*
X25660Y43850D02*
X25830Y43680D01*
X24740Y43850D02*
X25660D01*
X24680Y43790D02*
X24740Y43850D01*
X24680Y43650D02*
Y43790D01*
X29382Y43958D02*
X29632D01*
X25380Y43330D02*
Y43650D01*
X27193Y45217D02*
X27473D01*
X30250Y51400D02*
X30730Y50920D01*
X25815Y47973D02*
Y48257D01*
X26012Y47973D02*
Y48312D01*
X23834Y46202D02*
X23847D01*
X25225Y47560D02*
Y47973D01*
X26650Y46005D02*
X27193D01*
X26660Y46398D02*
X27193D01*
X26780Y46202D02*
X27193D01*
X23555Y46595D02*
X23847D01*
X23480Y46670D02*
X23555Y46595D01*
X23480Y46670D02*
Y47400D01*
X23258Y47622D02*
X23480Y47400D01*
X22950Y47622D02*
X23258D01*
X23542Y46398D02*
X23847D01*
X23262Y46678D02*
X23542Y46398D01*
X22950Y46678D02*
X23262D01*
X27640Y45960D02*
X27770D01*
X27488Y45808D02*
X27640Y45960D01*
X27193Y45808D02*
X27488D01*
X27193Y45611D02*
X27769D01*
X27640Y45260D02*
X27770D01*
X27486Y45414D02*
X27640Y45260D01*
X27193Y45414D02*
X27486D01*
X25380Y44050D02*
Y44170D01*
X25225Y44325D02*
X25380Y44170D01*
X25225Y44325D02*
Y44627D01*
X25028Y44052D02*
Y44627D01*
X24680Y44050D02*
Y44180D01*
X24831Y44331D01*
Y44627D01*
X29408Y43368D02*
X29632D01*
X23571Y45611D02*
X23847D01*
Y45414D02*
X24379D01*
X25974Y47010D01*
X26390D01*
X27280Y47900D01*
X27940D01*
X28640Y46190D02*
Y47099D01*
X30282Y47192D02*
Y47398D01*
X30085Y47192D02*
Y47345D01*
X28640Y47099D02*
X28971Y47430D01*
X30000D01*
X30085Y47345D01*
X28410Y45960D02*
X28640Y46190D01*
X29395Y46395D02*
X29878D01*
X28170Y45610D02*
X28360D01*
X29060Y46880D02*
X29165Y46985D01*
X29160Y46160D02*
X29395Y46395D01*
X27650Y45040D02*
X28760D01*
X29160Y45440D01*
Y46160D01*
X28170Y45260D02*
X28839D01*
X29060Y45481D01*
Y46880D01*
X29300Y43050D02*
Y43260D01*
X29408Y43368D01*
X24634Y44324D02*
Y44627D01*
X24440Y44130D02*
X24634Y44324D01*
X29422Y44155D02*
X29632D01*
X29261Y44080D02*
X29382Y43958D01*
X29318Y44260D02*
X29422Y44155D01*
X25380Y43330D02*
X25550Y43160D01*
X27267D01*
X25830Y43400D02*
X25970Y43260D01*
X27226D01*
X27309Y43060D02*
X28329Y44080D01*
X29110Y42860D02*
X29300Y43050D01*
X28750Y50900D02*
X29250Y51400D01*
X24831Y47560D02*
Y47973D01*
Y47560D02*
X24996Y47395D01*
X25422Y44627D02*
Y44958D01*
X25300Y45080D02*
X25422Y44958D01*
X24930Y45080D02*
X25300D01*
X25618Y44627D02*
Y45142D01*
X24930Y45320D02*
X25440D01*
X25618Y45142D01*
X23847Y46202D02*
X24280D01*
X24996Y47395D02*
X25755D01*
X27193Y46989D02*
X27481D01*
X27580Y46890D01*
X25755Y47395D02*
X25880Y47520D01*
X26360D01*
X26209Y47973D02*
Y48289D01*
X26280Y48360D01*
X26460D01*
X26012Y47350D02*
X26443D01*
X26210Y47180D02*
X26415D01*
X26616Y47960D02*
X26820D01*
X26603Y47973D02*
X26616Y47960D01*
X27580Y46690D02*
Y46890D01*
Y46690D02*
X27710Y46560D01*
X26415Y47180D02*
X27200Y47965D01*
X26443Y47350D02*
X27100Y48007D01*
X27200Y47965D02*
Y48770D01*
X27100Y48007D02*
Y48811D01*
X27200Y48770D02*
X27740Y49310D01*
X27100Y48811D02*
X27699Y49410D01*
X27169Y49610D02*
X28470D01*
X26012Y48312D02*
X27210Y49510D01*
X25815Y48257D02*
X27169Y49610D01*
X28470D02*
X28750Y49890D01*
Y50900D01*
X30730Y49640D02*
Y50920D01*
X27740Y49310D02*
X30400D01*
X30730Y49640D01*
X30250Y49700D02*
Y50400D01*
X27699Y49410D02*
X29960D01*
X30250Y49700D01*
X29250Y49790D02*
Y50400D01*
X27210Y49510D02*
X28970D01*
X29250Y49790D01*
X27940Y47900D02*
X28310Y47530D01*
X30150D01*
X30282Y47398D01*
X29612Y46188D02*
X30085D01*
X29600Y46200D02*
X29612Y46188D01*
X28329Y44080D02*
X29261D01*
X28800Y44260D02*
X29318D01*
X27350Y42960D02*
X28265Y43875D01*
X28415D01*
X27267Y43160D02*
X29317Y45210D01*
X31330D01*
X31670Y44870D01*
X29276Y45310D02*
X31371D01*
X27226Y43260D02*
X29276Y45310D01*
X31371D02*
X31770Y44911D01*
D33*
X23970Y44590D02*
Y44850D01*
X23730Y44350D02*
X23970Y44590D01*
X23730Y44050D02*
Y44350D01*
X23847Y44717D02*
Y45217D01*
X23370Y44240D02*
X23847Y44717D01*
X23370Y44050D02*
Y44240D01*
X23970Y44850D02*
X25912Y46792D01*
X23370Y43650D02*
X23730D01*
X22840Y43570D02*
X23120Y43290D01*
X22634Y43570D02*
X22840D01*
X23120Y43290D02*
X23920D01*
X23250Y43400D02*
X23640D01*
X23140Y43510D02*
X23250Y43400D01*
X23140Y43510D02*
Y43760D01*
X23730Y43490D02*
Y43650D01*
X23640Y43400D02*
X23730Y43490D01*
X23920Y43290D02*
X24090Y43460D01*
X22842Y44058D02*
X23140Y43760D01*
X22630Y44058D02*
X22842D01*
X24090Y44050D02*
Y44814D01*
Y43460D02*
Y43650D01*
X22630Y43566D02*
X22634Y43570D01*
X22074Y44058D02*
X22630D01*
X22074Y43566D02*
X22630D01*
X21830Y48014D02*
X22340D01*
X21830Y48270D02*
X22340D01*
X25871Y46595D02*
X27193D01*
X25912Y46792D02*
X27193D01*
X25950Y44050D02*
X26100D01*
X25815Y44185D02*
X25950Y44050D01*
X25815Y44185D02*
Y44627D01*
X24796Y42056D02*
X24997D01*
X24090Y44814D02*
X25871Y46595D01*
D34*
X20900Y47480D02*
Y49060D01*
Y46779D02*
Y47480D01*
X21150Y49060D02*
X21272D01*
X20900D02*
X21150D01*
X20900D02*
Y49761D01*
X21272Y47480D02*
X21702Y47050D01*
X20900Y47480D02*
X21272D01*
Y49060D02*
X21702Y49490D01*
X21400Y45550D02*
X22330Y46480D01*
X21400Y42900D02*
Y45550D01*
Y42900D02*
X21718Y42582D01*
X21830Y48782D02*
X22318D01*
X25120Y42400D02*
Y42630D01*
Y42850D01*
X24930Y43040D02*
X25120Y42850D01*
X24110Y43040D02*
X24930D01*
X22212Y47758D02*
X22330Y47640D01*
Y46480D02*
Y47640D01*
X21830Y47758D02*
X22212D01*
X21718Y42582D02*
X22630D01*
X21926Y43074D02*
X22630D01*
X24690Y41544D02*
X24720Y41574D01*
Y42580D01*
X23320Y43040D02*
X23710D01*
X23320Y42640D02*
X23710D01*
X24550Y49863D02*
X25050D01*
X24050D02*
X24550D01*
X23550D02*
X24050D01*
X22870Y43040D02*
X23320D01*
X22900Y42640D02*
X23320D01*
X23830Y48550D02*
X24340D01*
X28550Y41500D02*
X28950D01*
X29300D01*
X29700D02*
X30050D01*
X26156Y41544D02*
X26550D01*
X26640Y41500D02*
X27280D01*
X24690Y41544D02*
X24744D01*
X24406D02*
X24690D01*
X24110Y42640D02*
X24720D01*
X29700Y48500D02*
X30050D01*
X28950D02*
X29300D01*
X28550D02*
X28950D01*
X30050Y48497D02*
X30413D01*
X23050Y49863D02*
Y50360D01*
X24050Y49863D02*
Y50360D01*
X30413Y48497D02*
X30675Y48235D01*
Y47560D02*
Y48235D01*
D35*
X30282Y45928D02*
Y46188D01*
X23050Y51050D02*
Y51537D01*
X23550Y51050D02*
Y51537D01*
X24050Y51050D02*
Y51537D01*
X25225Y47973D02*
Y48545D01*
X23308Y46202D02*
X23847D01*
X25050Y51050D02*
Y51537D01*
D36*
X25903Y42056D02*
X26184D01*
X25903Y41544D02*
X26156D01*
X24744D02*
X24997D01*
D37*
X27670Y41550D02*
X28500D01*
X27680Y48450D02*
X28500D01*
D38*
X22197Y41598D02*
D03*
Y45042D02*
D03*
D39*
X29250Y51400D02*
D03*
Y50400D02*
D03*
X28250Y51400D02*
D03*
Y50400D02*
D03*
X27250Y51400D02*
D03*
X30250Y50400D02*
D03*
Y51400D02*
D03*
D40*
X27250Y50400D02*
D03*
D41*
X23300Y50700D02*
D03*
X24800D02*
D03*
D42*
X21250Y51300D02*
D03*
X31300Y41200D02*
D03*
D43*
X22717Y45370D02*
D03*
X23660Y44910D02*
D03*
X23080Y48550D02*
D03*
X21150Y49060D02*
D03*
X22318Y48782D02*
D03*
X25120Y42400D02*
D03*
X25450Y42320D02*
D03*
X22074Y44058D02*
D03*
Y43566D02*
D03*
X21926Y43074D02*
D03*
X24330Y43280D02*
D03*
X22340Y48014D02*
D03*
Y48270D02*
D03*
X30675Y47560D02*
D03*
X28860Y46570D02*
D03*
X29510Y46788D02*
D03*
X30282Y45928D02*
D03*
X31130Y46395D02*
D03*
X31530Y47486D02*
D03*
X31128Y46788D02*
D03*
X26210Y47180D02*
D03*
X26012Y45040D02*
D03*
X26209Y45170D02*
D03*
X23050Y51050D02*
D03*
X23550D02*
D03*
X24050D02*
D03*
X27280Y41500D02*
D03*
X26650Y46005D02*
D03*
X26660Y46398D02*
D03*
X26780Y46202D02*
D03*
X25830Y48920D02*
D03*
X24110Y48550D02*
D03*
X22950Y46927D02*
D03*
X23300Y45147D02*
D03*
X29110Y43270D02*
D03*
X31710Y42980D02*
D03*
X30050Y42090D02*
D03*
X28950D02*
D03*
X28950Y47910D02*
D03*
X30050D02*
D03*
X26550Y42307D02*
D03*
X27050Y42100D02*
D03*
X26184Y42056D02*
D03*
X24400Y42307D02*
D03*
X26803Y44627D02*
D03*
X26100Y44050D02*
D03*
X27800Y47700D02*
D03*
Y46900D02*
D03*
X23320Y42430D02*
D03*
X28500Y47710D02*
D03*
X28500Y42290D02*
D03*
X28360Y45610D02*
D03*
X23050Y50360D02*
D03*
X24050D02*
D03*
X24740Y48753D02*
D03*
X26012Y47350D02*
D03*
X25225Y47560D02*
D03*
X26310Y47520D02*
D03*
X24930Y45320D02*
D03*
Y45080D02*
D03*
X26460Y48360D02*
D03*
X26820Y47960D02*
D03*
X27710Y46560D02*
D03*
X30900Y42790D02*
D03*
X27670Y41550D02*
D03*
X27680Y48450D02*
D03*
X29630Y46188D02*
D03*
X31440Y44640D02*
D03*
X25050Y51050D02*
D03*
X24240Y47383D02*
D03*
X24282Y46202D02*
D03*
X28415Y43875D02*
D03*
X28800Y44260D02*
D03*
M02*
