%FSLAX24Y24*%
%MOIN*%
G70*
G01*
G75*
G04 Layer_Physical_Order=3*
G04 Layer_Color=16440176*
%ADD10R,0.0710X0.0300*%
%ADD11R,0.1024X0.0787*%
%ADD12R,0.0532X0.0157*%
%ADD13R,0.0748X0.0630*%
%ADD14R,0.0748X0.0472*%
%ADD15R,0.0787X0.0827*%
%ADD16R,0.0150X0.0200*%
%ADD17R,0.0291X0.0728*%
%ADD18R,0.0787X0.0157*%
%ADD19R,0.0118X0.0472*%
%ADD20R,0.0472X0.0118*%
%ADD21R,0.0236X0.0098*%
%ADD22R,0.0295X0.0472*%
%ADD23R,0.0200X0.0150*%
%ADD24R,0.0300X0.0250*%
%ADD25R,0.0335X0.0138*%
%ADD26R,0.0138X0.0315*%
%ADD27R,0.0250X0.0300*%
%ADD28R,0.0118X0.0165*%
%ADD29R,0.0165X0.0118*%
%ADD30C,0.0100*%
%ADD31C,0.0120*%
%ADD32C,0.0050*%
%ADD33C,0.0060*%
%ADD34C,0.0140*%
%ADD35C,0.0080*%
%ADD36C,0.0098*%
%ADD37C,0.0160*%
%ADD38C,0.0433*%
%ADD39C,0.0591*%
%ADD40R,0.0591X0.0591*%
%ADD41C,0.0354*%
%ADD42C,0.1250*%
%ADD43C,0.0180*%
%ADD44C,0.0200*%
%ADD45C,0.0300*%
%ADD46R,0.1120X0.1120*%
G36*
X31616Y51934D02*
X31724Y51889D01*
X31817Y51817D01*
X31889Y51724D01*
X31934Y51616D01*
X31947Y51514D01*
X31945Y51500D01*
Y49195D01*
X31750Y49000D01*
X28300Y49000D01*
X28080Y48780D01*
Y46590D01*
X27180Y45690D01*
Y42530D01*
X27880Y41830D01*
Y40565D01*
X21000D01*
X20948Y40558D01*
X20884Y40566D01*
X20776Y40611D01*
X20683Y40683D01*
X20611Y40776D01*
X20566Y40884D01*
X20553Y40986D01*
X20555Y41000D01*
Y50374D01*
X20590Y50409D01*
X21210Y50406D01*
X21384Y50423D01*
X21552Y50474D01*
X21707Y50556D01*
X21842Y50668D01*
X21954Y50803D01*
X22036Y50958D01*
X22087Y51126D01*
X22104Y51300D01*
X22100D01*
Y51945D01*
X31500D01*
X31514Y51947D01*
X31616Y51934D01*
D02*
G37*
%LPC*%
G36*
X22197Y45311D02*
X22127Y45302D01*
X22063Y45275D01*
X22007Y45233D01*
X21964Y45177D01*
X21937Y45112D01*
X21928Y45042D01*
X21937Y44973D01*
X21964Y44908D01*
X22007Y44852D01*
X22063Y44810D01*
X22127Y44783D01*
X22197Y44774D01*
X22267Y44783D01*
X22331Y44810D01*
X22387Y44852D01*
X22430Y44908D01*
X22457Y44973D01*
X22466Y45042D01*
X22457Y45112D01*
X22430Y45177D01*
X22387Y45233D01*
X22331Y45275D01*
X22267Y45302D01*
X22197Y45311D01*
D02*
G37*
G36*
X23660Y45053D02*
X23605Y45042D01*
X23559Y45011D01*
X23528Y44965D01*
X23517Y44910D01*
X23528Y44855D01*
X23559Y44809D01*
X23605Y44778D01*
X23660Y44767D01*
X23715Y44778D01*
X23761Y44809D01*
X23792Y44855D01*
X23803Y44910D01*
X23792Y44965D01*
X23761Y45011D01*
X23715Y45042D01*
X23660Y45053D01*
D02*
G37*
G36*
X24930Y45463D02*
X24875Y45452D01*
X24829Y45421D01*
X24798Y45375D01*
X24787Y45320D01*
X24798Y45265D01*
X24829Y45219D01*
Y45181D01*
X24798Y45135D01*
X24787Y45080D01*
X24798Y45025D01*
X24829Y44979D01*
X24875Y44948D01*
X24930Y44937D01*
X24985Y44948D01*
X25031Y44979D01*
X25062Y45025D01*
X25073Y45080D01*
X25062Y45135D01*
X25031Y45181D01*
Y45219D01*
X25062Y45265D01*
X25073Y45320D01*
X25062Y45375D01*
X25031Y45421D01*
X24985Y45452D01*
X24930Y45463D01*
D02*
G37*
G36*
X23250Y45097D02*
X23167D01*
X23168Y45092D01*
X23199Y45046D01*
X23245Y45015D01*
X23250Y45014D01*
Y45097D01*
D02*
G37*
G36*
X26753Y44577D02*
X26670D01*
X26671Y44572D01*
X26702Y44526D01*
X26748Y44495D01*
X26753Y44494D01*
Y44577D01*
D02*
G37*
G36*
X22074Y44201D02*
X22019Y44190D01*
X21973Y44159D01*
X21942Y44113D01*
X21931Y44058D01*
X21942Y44004D01*
X21973Y43957D01*
X22019Y43926D01*
X22074Y43915D01*
X22129Y43926D01*
X22175Y43957D01*
X22206Y44004D01*
X22217Y44058D01*
X22206Y44113D01*
X22175Y44159D01*
X22129Y44190D01*
X22074Y44201D01*
D02*
G37*
G36*
X26935Y44577D02*
X26853D01*
Y44494D01*
X26857Y44495D01*
X26904Y44526D01*
X26935Y44572D01*
X26935Y44577D01*
D02*
G37*
G36*
X26853Y44760D02*
Y44677D01*
X26935D01*
X26935Y44681D01*
X26904Y44728D01*
X26857Y44759D01*
X26853Y44760D01*
D02*
G37*
G36*
X26753D02*
X26748Y44759D01*
X26702Y44728D01*
X26671Y44681D01*
X26670Y44677D01*
X26753D01*
Y44760D01*
D02*
G37*
G36*
X23433Y45097D02*
X23350D01*
Y45014D01*
X23355Y45015D01*
X23401Y45046D01*
X23432Y45092D01*
X23433Y45097D01*
D02*
G37*
G36*
X22950Y47070D02*
X22895Y47059D01*
X22849Y47028D01*
X22818Y46981D01*
X22807Y46927D01*
X22818Y46872D01*
X22849Y46826D01*
X22895Y46795D01*
X22950Y46784D01*
X23005Y46795D01*
X23051Y46826D01*
X23082Y46872D01*
X23093Y46927D01*
X23082Y46981D01*
X23051Y47028D01*
X23005Y47059D01*
X22950Y47070D01*
D02*
G37*
G36*
X27800Y47043D02*
X27745Y47032D01*
X27699Y47001D01*
X27668Y46955D01*
X27657Y46900D01*
X27668Y46845D01*
X27699Y46799D01*
X27745Y46768D01*
X27800Y46757D01*
X27855Y46768D01*
X27901Y46799D01*
X27932Y46845D01*
X27943Y46900D01*
X27932Y46955D01*
X27901Y47001D01*
X27855Y47032D01*
X27800Y47043D01*
D02*
G37*
G36*
X26012Y47493D02*
X25958Y47482D01*
X25911Y47451D01*
X25880Y47405D01*
X25869Y47350D01*
X25880Y47295D01*
X25911Y47249D01*
X25958Y47218D01*
X26012Y47207D01*
X26067Y47218D01*
X26067Y47218D01*
X26067Y47180D01*
X26067Y47180D01*
X26067D01*
X26078Y47125D01*
X26109Y47079D01*
X26155Y47048D01*
X26210Y47037D01*
X26265Y47048D01*
X26311Y47079D01*
X26342Y47125D01*
X26353Y47180D01*
X26342Y47235D01*
X26311Y47281D01*
X26265Y47312D01*
X26210Y47323D01*
X26193Y47319D01*
X26155Y47350D01*
Y47350D01*
X26155D01*
D01*
D01*
X26144Y47405D01*
X26113Y47451D01*
X26067Y47482D01*
X26012Y47493D01*
D02*
G37*
G36*
X24373Y47333D02*
X24290D01*
Y47250D01*
X24295Y47251D01*
X24341Y47282D01*
X24372Y47328D01*
X24373Y47333D01*
D02*
G37*
G36*
X24190D02*
X24107D01*
X24108Y47328D01*
X24139Y47282D01*
X24185Y47251D01*
X24190Y47250D01*
Y47333D01*
D02*
G37*
G36*
X23250Y45280D02*
X23245Y45279D01*
X23199Y45248D01*
X23168Y45201D01*
X23167Y45197D01*
X23250D01*
Y45280D01*
D02*
G37*
G36*
X26209Y45313D02*
X26154Y45302D01*
X26108Y45271D01*
X26077Y45225D01*
X26074Y45207D01*
X26032Y45179D01*
X26012Y45183D01*
X25958Y45172D01*
X25911Y45141D01*
X25880Y45095D01*
X25869Y45040D01*
X25880Y44985D01*
X25911Y44939D01*
X25958Y44908D01*
X26012Y44897D01*
X26067Y44908D01*
X26113Y44939D01*
X26144Y44985D01*
X26148Y45003D01*
X26189Y45031D01*
X26209Y45027D01*
X26264Y45038D01*
X26310Y45069D01*
X26341Y45115D01*
X26352Y45170D01*
X26341Y45225D01*
X26310Y45271D01*
X26264Y45302D01*
X26209Y45313D01*
D02*
G37*
G36*
X23350Y45280D02*
Y45197D01*
X23433D01*
X23432Y45201D01*
X23401Y45248D01*
X23355Y45279D01*
X23350Y45280D01*
D02*
G37*
G36*
X24282Y46344D02*
X24227Y46333D01*
X24181Y46303D01*
X24150Y46256D01*
X24139Y46202D01*
X24150Y46147D01*
X24181Y46101D01*
X24227Y46070D01*
X24282Y46059D01*
X24336Y46070D01*
X24383Y46101D01*
X24413Y46147D01*
X24424Y46202D01*
X24413Y46256D01*
X24383Y46303D01*
X24336Y46333D01*
X24282Y46344D01*
D02*
G37*
G36*
X22717Y45513D02*
X22662Y45502D01*
X22616Y45471D01*
X22585Y45425D01*
X22574Y45370D01*
X22585Y45315D01*
X22616Y45269D01*
X22662Y45238D01*
X22717Y45227D01*
X22771Y45238D01*
X22818Y45269D01*
X22849Y45315D01*
X22860Y45370D01*
X22849Y45425D01*
X22818Y45471D01*
X22771Y45502D01*
X22717Y45513D01*
D02*
G37*
G36*
X27330Y41633D02*
Y41550D01*
X27413D01*
X27412Y41555D01*
X27381Y41601D01*
X27335Y41632D01*
X27330Y41633D01*
D02*
G37*
G36*
X27230D02*
X27225Y41632D01*
X27179Y41601D01*
X27148Y41555D01*
X27147Y41550D01*
X27230D01*
Y41633D01*
D02*
G37*
G36*
X27620Y41683D02*
X27615Y41682D01*
X27569Y41651D01*
X27538Y41605D01*
X27537Y41600D01*
X27620D01*
Y41683D01*
D02*
G37*
G36*
X26184Y42199D02*
X26129Y42188D01*
X26083Y42157D01*
X26052Y42111D01*
X26041Y42056D01*
X26052Y42001D01*
X26083Y41955D01*
X26129Y41924D01*
X26184Y41913D01*
X26239Y41924D01*
X26285Y41955D01*
X26316Y42001D01*
X26327Y42056D01*
X26316Y42111D01*
X26285Y42157D01*
X26239Y42188D01*
X26184Y42199D01*
D02*
G37*
G36*
X27720Y41683D02*
Y41600D01*
X27803D01*
X27802Y41605D01*
X27771Y41651D01*
X27725Y41682D01*
X27720Y41683D01*
D02*
G37*
G36*
X27230Y41450D02*
X27147D01*
X27148Y41445D01*
X27179Y41399D01*
X27225Y41368D01*
X27230Y41367D01*
Y41450D01*
D02*
G37*
G36*
X22197Y41866D02*
X22127Y41857D01*
X22063Y41830D01*
X22007Y41788D01*
X21964Y41732D01*
X21937Y41667D01*
X21928Y41598D01*
X21937Y41528D01*
X21964Y41463D01*
X22007Y41407D01*
X22063Y41365D01*
X22127Y41338D01*
X22197Y41329D01*
X22267Y41338D01*
X22331Y41365D01*
X22387Y41407D01*
X22430Y41463D01*
X22457Y41528D01*
X22466Y41598D01*
X22457Y41667D01*
X22430Y41732D01*
X22387Y41788D01*
X22331Y41830D01*
X22267Y41857D01*
X22197Y41866D01*
D02*
G37*
G36*
X27413Y41450D02*
X27330D01*
Y41367D01*
X27335Y41368D01*
X27381Y41399D01*
X27412Y41445D01*
X27413Y41450D01*
D02*
G37*
G36*
X27803Y41500D02*
X27720D01*
Y41417D01*
X27725Y41418D01*
X27771Y41449D01*
X27802Y41495D01*
X27803Y41500D01*
D02*
G37*
G36*
X27620D02*
X27537D01*
X27538Y41495D01*
X27569Y41449D01*
X27615Y41418D01*
X27620Y41417D01*
Y41500D01*
D02*
G37*
G36*
X21926Y43217D02*
X21871Y43206D01*
X21825Y43175D01*
X21794Y43129D01*
X21783Y43074D01*
X21794Y43019D01*
X21825Y42973D01*
X21871Y42942D01*
X21926Y42931D01*
X21981Y42942D01*
X22027Y42973D01*
X22058Y43019D01*
X22069Y43074D01*
X22058Y43129D01*
X22027Y43175D01*
X21981Y43206D01*
X21926Y43217D01*
D02*
G37*
G36*
X23320Y42573D02*
X23265Y42562D01*
X23219Y42531D01*
X23188Y42485D01*
X23177Y42430D01*
X23188Y42375D01*
X23219Y42329D01*
X23265Y42298D01*
X23320Y42287D01*
X23375Y42298D01*
X23421Y42329D01*
X23452Y42375D01*
X23463Y42430D01*
X23452Y42485D01*
X23421Y42531D01*
X23375Y42562D01*
X23320Y42573D01*
D02*
G37*
G36*
X24330Y43423D02*
X24275Y43412D01*
X24229Y43381D01*
X24198Y43335D01*
X24187Y43280D01*
X24198Y43225D01*
X24229Y43179D01*
X24275Y43148D01*
X24330Y43137D01*
X24385Y43148D01*
X24431Y43179D01*
X24462Y43225D01*
X24473Y43280D01*
X24462Y43335D01*
X24431Y43381D01*
X24385Y43412D01*
X24330Y43423D01*
D02*
G37*
G36*
X26100Y44193D02*
X26045Y44182D01*
X25999Y44151D01*
X25968Y44105D01*
X25957Y44050D01*
X25968Y43995D01*
X25999Y43949D01*
X26045Y43918D01*
X26100Y43907D01*
X26155Y43918D01*
X26201Y43949D01*
X26232Y43995D01*
X26243Y44050D01*
X26232Y44105D01*
X26201Y44151D01*
X26155Y44182D01*
X26100Y44193D01*
D02*
G37*
G36*
X22074Y43709D02*
X22019Y43698D01*
X21973Y43667D01*
X21942Y43621D01*
X21931Y43566D01*
X21942Y43511D01*
X21973Y43465D01*
X22019Y43434D01*
X22074Y43423D01*
X22129Y43434D01*
X22175Y43465D01*
X22206Y43511D01*
X22217Y43566D01*
X22206Y43621D01*
X22175Y43667D01*
X22129Y43698D01*
X22074Y43709D01*
D02*
G37*
G36*
X24400Y42450D02*
X24345Y42439D01*
X24299Y42408D01*
X24268Y42361D01*
X24257Y42307D01*
X24268Y42252D01*
X24299Y42206D01*
X24345Y42175D01*
X24400Y42164D01*
X24455Y42175D01*
X24501Y42206D01*
X24532Y42252D01*
X24543Y42307D01*
X24532Y42361D01*
X24501Y42408D01*
X24455Y42439D01*
X24400Y42450D01*
D02*
G37*
G36*
X27050Y42243D02*
X26995Y42232D01*
X26949Y42201D01*
X26918Y42155D01*
X26907Y42100D01*
X26918Y42045D01*
X26949Y41999D01*
X26995Y41968D01*
X27050Y41957D01*
X27105Y41968D01*
X27151Y41999D01*
X27182Y42045D01*
X27193Y42100D01*
X27182Y42155D01*
X27151Y42201D01*
X27105Y42232D01*
X27050Y42243D01*
D02*
G37*
G36*
X26550Y42450D02*
X26495Y42439D01*
X26449Y42408D01*
X26418Y42361D01*
X26407Y42307D01*
X26418Y42252D01*
X26449Y42206D01*
X26495Y42175D01*
X26550Y42164D01*
X26605Y42175D01*
X26651Y42206D01*
X26682Y42252D01*
X26693Y42307D01*
X26682Y42361D01*
X26651Y42408D01*
X26605Y42439D01*
X26550Y42450D01*
D02*
G37*
G36*
X25120Y42543D02*
X25065Y42532D01*
X25019Y42501D01*
X24988Y42455D01*
X24977Y42400D01*
X24988Y42345D01*
X25019Y42299D01*
X25065Y42268D01*
X25120Y42257D01*
X25175Y42268D01*
X25221Y42299D01*
X25252Y42345D01*
X25263Y42400D01*
X25252Y42455D01*
X25221Y42501D01*
X25175Y42532D01*
X25120Y42543D01*
D02*
G37*
G36*
X25450Y42463D02*
X25395Y42452D01*
X25349Y42421D01*
X25318Y42375D01*
X25307Y42320D01*
X25318Y42265D01*
X25349Y42219D01*
X25395Y42188D01*
X25450Y42177D01*
X25505Y42188D01*
X25551Y42219D01*
X25582Y42265D01*
X25593Y42320D01*
X25582Y42375D01*
X25551Y42421D01*
X25505Y42452D01*
X25450Y42463D01*
D02*
G37*
G36*
X23183Y50310D02*
X23100D01*
Y50227D01*
X23105Y50228D01*
X23151Y50259D01*
X23182Y50305D01*
X23183Y50310D01*
D02*
G37*
G36*
X23000D02*
X22917D01*
X22918Y50305D01*
X22949Y50259D01*
X22995Y50228D01*
X23000Y50227D01*
Y50310D01*
D02*
G37*
G36*
Y50493D02*
X22995Y50492D01*
X22949Y50461D01*
X22918Y50415D01*
X22917Y50410D01*
X23000D01*
Y50493D01*
D02*
G37*
G36*
X27200Y50795D02*
X26855D01*
Y50450D01*
X27200D01*
Y50795D01*
D02*
G37*
G36*
X23100Y50493D02*
Y50410D01*
X23183D01*
X23182Y50415D01*
X23151Y50461D01*
X23105Y50492D01*
X23100Y50493D01*
D02*
G37*
G36*
X27645Y50350D02*
X27300D01*
Y50005D01*
X27645D01*
Y50350D01*
D02*
G37*
G36*
X27200D02*
X26855D01*
Y50005D01*
X27200D01*
Y50350D01*
D02*
G37*
G36*
X28250Y50748D02*
X28160Y50736D01*
X28076Y50702D01*
X28004Y50646D01*
X27948Y50574D01*
X27914Y50490D01*
X27902Y50400D01*
X27914Y50310D01*
X27948Y50226D01*
X28004Y50154D01*
X28076Y50098D01*
X28160Y50064D01*
X28250Y50052D01*
X28340Y50064D01*
X28424Y50098D01*
X28496Y50154D01*
X28552Y50226D01*
X28586Y50310D01*
X28598Y50400D01*
X28586Y50490D01*
X28552Y50574D01*
X28496Y50646D01*
X28424Y50702D01*
X28340Y50736D01*
X28250Y50748D01*
D02*
G37*
G36*
X30250D02*
X30160Y50736D01*
X30076Y50702D01*
X30004Y50646D01*
X29948Y50574D01*
X29914Y50490D01*
X29902Y50400D01*
X29914Y50310D01*
X29948Y50226D01*
X30004Y50154D01*
X30076Y50098D01*
X30160Y50064D01*
X30250Y50052D01*
X30340Y50064D01*
X30424Y50098D01*
X30496Y50154D01*
X30552Y50226D01*
X30586Y50310D01*
X30598Y50400D01*
X30586Y50490D01*
X30552Y50574D01*
X30496Y50646D01*
X30424Y50702D01*
X30340Y50736D01*
X30250Y50748D01*
D02*
G37*
G36*
X29250D02*
X29160Y50736D01*
X29076Y50702D01*
X29004Y50646D01*
X28948Y50574D01*
X28914Y50490D01*
X28902Y50400D01*
X28914Y50310D01*
X28948Y50226D01*
X29004Y50154D01*
X29076Y50098D01*
X29160Y50064D01*
X29250Y50052D01*
X29340Y50064D01*
X29424Y50098D01*
X29496Y50154D01*
X29552Y50226D01*
X29586Y50310D01*
X29598Y50400D01*
X29586Y50490D01*
X29552Y50574D01*
X29496Y50646D01*
X29424Y50702D01*
X29340Y50736D01*
X29250Y50748D01*
D02*
G37*
G36*
X27250Y51748D02*
X27160Y51736D01*
X27076Y51702D01*
X27004Y51646D01*
X26948Y51574D01*
X26914Y51490D01*
X26902Y51400D01*
X26914Y51310D01*
X26948Y51226D01*
X27004Y51154D01*
X27076Y51098D01*
X27160Y51064D01*
X27250Y51052D01*
X27340Y51064D01*
X27424Y51098D01*
X27496Y51154D01*
X27552Y51226D01*
X27586Y51310D01*
X27598Y51400D01*
X27586Y51490D01*
X27552Y51574D01*
X27496Y51646D01*
X27424Y51702D01*
X27340Y51736D01*
X27250Y51748D01*
D02*
G37*
G36*
X24050Y51193D02*
X23995Y51182D01*
X23949Y51151D01*
X23918Y51105D01*
X23907Y51050D01*
X23909Y51039D01*
X23876Y51006D01*
X23876Y51006D01*
X23876Y51006D01*
X23800Y50955D01*
X23775D01*
X23691Y51039D01*
X23693Y51050D01*
X23682Y51105D01*
X23651Y51151D01*
X23605Y51182D01*
X23550Y51193D01*
X23495Y51182D01*
X23449Y51151D01*
X23418Y51105D01*
X23407Y51050D01*
X23418Y50995D01*
X23449Y50949D01*
X23495Y50918D01*
X23550Y50907D01*
X23561Y50909D01*
X23628Y50842D01*
Y48370D01*
X23628Y48370D01*
X23628D01*
X23635Y48335D01*
X23655Y48305D01*
X24065Y47895D01*
X24095Y47875D01*
X24130Y47868D01*
X26713D01*
X26719Y47859D01*
X26765Y47828D01*
X26820Y47817D01*
X26875Y47828D01*
X26921Y47859D01*
X26952Y47905D01*
X26963Y47960D01*
X26952Y48015D01*
X26921Y48061D01*
X26875Y48092D01*
X26820Y48103D01*
X26765Y48092D01*
X26719Y48061D01*
X26713Y48052D01*
X26347D01*
X26328Y48098D01*
X26449Y48219D01*
X26460Y48217D01*
X26515Y48228D01*
X26561Y48259D01*
X26592Y48305D01*
X26603Y48360D01*
X26592Y48415D01*
X26561Y48461D01*
X26515Y48492D01*
X26460Y48503D01*
X26405Y48492D01*
X26359Y48461D01*
X26328Y48415D01*
X26317Y48360D01*
X26319Y48349D01*
X26152Y48182D01*
X24222D01*
X24027Y48376D01*
X24055Y48418D01*
X24060Y48417D01*
Y48550D01*
Y48683D01*
X24055Y48682D01*
X24009Y48651D01*
X23962Y48683D01*
Y50195D01*
X24000Y50227D01*
X24050Y50217D01*
X24105Y50228D01*
X24151Y50259D01*
X24182Y50305D01*
X24193Y50360D01*
X24182Y50415D01*
X24151Y50461D01*
X24105Y50492D01*
X24050Y50503D01*
X24000Y50493D01*
X23962Y50525D01*
Y50832D01*
X24039Y50909D01*
X24050Y50907D01*
X24105Y50918D01*
X24151Y50949D01*
X24182Y50995D01*
X24193Y51050D01*
X24182Y51105D01*
X24151Y51151D01*
X24105Y51182D01*
X24050Y51193D01*
D02*
G37*
G36*
X28250Y51748D02*
X28160Y51736D01*
X28076Y51702D01*
X28004Y51646D01*
X27948Y51574D01*
X27914Y51490D01*
X27902Y51400D01*
X27914Y51310D01*
X27948Y51226D01*
X28004Y51154D01*
X28076Y51098D01*
X28160Y51064D01*
X28250Y51052D01*
X28340Y51064D01*
X28424Y51098D01*
X28496Y51154D01*
X28552Y51226D01*
X28586Y51310D01*
X28598Y51400D01*
X28586Y51490D01*
X28552Y51574D01*
X28496Y51646D01*
X28424Y51702D01*
X28340Y51736D01*
X28250Y51748D01*
D02*
G37*
G36*
X30250D02*
X30160Y51736D01*
X30076Y51702D01*
X30004Y51646D01*
X29948Y51574D01*
X29914Y51490D01*
X29902Y51400D01*
X29914Y51310D01*
X29948Y51226D01*
X30004Y51154D01*
X30076Y51098D01*
X30160Y51064D01*
X30250Y51052D01*
X30340Y51064D01*
X30424Y51098D01*
X30496Y51154D01*
X30552Y51226D01*
X30586Y51310D01*
X30598Y51400D01*
X30586Y51490D01*
X30552Y51574D01*
X30496Y51646D01*
X30424Y51702D01*
X30340Y51736D01*
X30250Y51748D01*
D02*
G37*
G36*
X29250D02*
X29160Y51736D01*
X29076Y51702D01*
X29004Y51646D01*
X28948Y51574D01*
X28914Y51490D01*
X28902Y51400D01*
X28914Y51310D01*
X28948Y51226D01*
X29004Y51154D01*
X29076Y51098D01*
X29160Y51064D01*
X29250Y51052D01*
X29340Y51064D01*
X29424Y51098D01*
X29496Y51154D01*
X29552Y51226D01*
X29586Y51310D01*
X29598Y51400D01*
X29586Y51490D01*
X29552Y51574D01*
X29496Y51646D01*
X29424Y51702D01*
X29340Y51736D01*
X29250Y51748D01*
D02*
G37*
G36*
X23300Y50932D02*
X23211Y50914D01*
X23136Y50864D01*
X23086Y50789D01*
X23068Y50700D01*
X23086Y50611D01*
X23136Y50536D01*
X23211Y50486D01*
X23300Y50468D01*
X23389Y50486D01*
X23464Y50536D01*
X23514Y50611D01*
X23532Y50700D01*
X23514Y50789D01*
X23464Y50864D01*
X23389Y50914D01*
X23300Y50932D01*
D02*
G37*
G36*
X27645Y50795D02*
X27300D01*
Y50450D01*
X27645D01*
Y50795D01*
D02*
G37*
G36*
X24800Y50932D02*
X24711Y50914D01*
X24636Y50864D01*
X24586Y50789D01*
X24568Y50700D01*
X24586Y50611D01*
X24636Y50536D01*
X24711Y50486D01*
X24800Y50468D01*
X24889Y50486D01*
X24964Y50536D01*
X25014Y50611D01*
X25032Y50700D01*
X25014Y50789D01*
X24964Y50864D01*
X24889Y50914D01*
X24800Y50932D01*
D02*
G37*
G36*
X25050Y51193D02*
X24995Y51182D01*
X24949Y51151D01*
X24918Y51105D01*
X24907Y51050D01*
X24918Y50995D01*
X24949Y50949D01*
X24995Y50918D01*
X25050Y50907D01*
X25105Y50918D01*
X25151Y50949D01*
X25182Y50995D01*
X25193Y51050D01*
X25182Y51105D01*
X25151Y51151D01*
X25105Y51182D01*
X25050Y51193D01*
D02*
G37*
G36*
X23050D02*
X22995Y51182D01*
X22949Y51151D01*
X22918Y51105D01*
X22907Y51050D01*
X22912Y51027D01*
X22682Y50798D01*
X22665Y50771D01*
X22658Y50740D01*
X22658Y50740D01*
Y48196D01*
X22658Y48196D01*
X22665Y48165D01*
X22682Y48138D01*
X24310Y46511D01*
X24310Y46511D01*
X24336Y46493D01*
X24336Y46493D01*
X24336Y46493D01*
D01*
X24336Y46493D01*
X24336Y46493D01*
X24367Y46487D01*
X24367Y46487D01*
X26495D01*
X26527Y46448D01*
X26517Y46398D01*
X26528Y46344D01*
X26559Y46297D01*
X26605Y46267D01*
X26647Y46258D01*
X26648Y46256D01*
X26637Y46202D01*
X26648Y46147D01*
X26595Y46137D01*
X26549Y46106D01*
X26518Y46059D01*
X26507Y46005D01*
X26518Y45950D01*
X26549Y45904D01*
X26595Y45873D01*
X26650Y45862D01*
X26705Y45873D01*
X26751Y45904D01*
X26782Y45950D01*
X26793Y46005D01*
X26789Y46025D01*
X26817Y46066D01*
X26835Y46070D01*
X26881Y46101D01*
X26912Y46147D01*
X26923Y46202D01*
X26912Y46256D01*
X26881Y46303D01*
X26835Y46333D01*
X26793Y46342D01*
X26792Y46344D01*
X26803Y46398D01*
X26793Y46448D01*
X26825Y46487D01*
X27590D01*
X27609Y46459D01*
X27655Y46428D01*
X27710Y46417D01*
X27765Y46428D01*
X27811Y46459D01*
X27842Y46505D01*
X27853Y46560D01*
X27842Y46615D01*
X27811Y46661D01*
X27765Y46692D01*
X27710Y46703D01*
X27655Y46692D01*
X27609Y46661D01*
X27602Y46650D01*
X24401D01*
X22822Y48230D01*
Y50706D01*
X23027Y50912D01*
X23050Y50907D01*
X23105Y50918D01*
X23151Y50949D01*
X23182Y50995D01*
X23193Y51050D01*
X23182Y51105D01*
X23151Y51151D01*
X23105Y51182D01*
X23050Y51193D01*
D02*
G37*
G36*
X27750Y47833D02*
X27745Y47832D01*
X27699Y47801D01*
X27668Y47755D01*
X27667Y47750D01*
X27750D01*
Y47833D01*
D02*
G37*
G36*
X27933Y47650D02*
X27850D01*
Y47567D01*
X27855Y47568D01*
X27901Y47599D01*
X27932Y47645D01*
X27933Y47650D01*
D02*
G37*
G36*
X27850Y47833D02*
Y47750D01*
X27933D01*
X27932Y47755D01*
X27901Y47801D01*
X27855Y47832D01*
X27850Y47833D01*
D02*
G37*
G36*
X27630Y48400D02*
X27547D01*
X27548Y48395D01*
X27579Y48349D01*
X27625Y48318D01*
X27630Y48317D01*
Y48400D01*
D02*
G37*
G36*
X22340Y48413D02*
X22285Y48402D01*
X22239Y48371D01*
X22208Y48325D01*
X22197Y48270D01*
X22208Y48215D01*
X22239Y48169D01*
X22242Y48167D01*
Y48117D01*
X22239Y48115D01*
X22208Y48069D01*
X22197Y48014D01*
X22208Y47959D01*
X22239Y47913D01*
X22285Y47882D01*
X22340Y47871D01*
X22395Y47882D01*
X22441Y47913D01*
X22472Y47959D01*
X22483Y48014D01*
X22472Y48069D01*
X22441Y48115D01*
X22438Y48117D01*
Y48167D01*
X22441Y48169D01*
X22472Y48215D01*
X22483Y48270D01*
X22472Y48325D01*
X22441Y48371D01*
X22395Y48402D01*
X22340Y48413D01*
D02*
G37*
G36*
X25225Y47703D02*
X25170Y47692D01*
X25124Y47661D01*
X25093Y47615D01*
X25082Y47560D01*
X25093Y47505D01*
X25124Y47459D01*
X25170Y47428D01*
X25225Y47417D01*
X25279Y47428D01*
X25326Y47459D01*
X25357Y47505D01*
X25367Y47560D01*
X25357Y47615D01*
X25326Y47661D01*
X25279Y47692D01*
X25225Y47703D01*
D02*
G37*
G36*
X26310Y47663D02*
X26255Y47652D01*
X26209Y47621D01*
X26178Y47575D01*
X26167Y47520D01*
X26178Y47465D01*
X26209Y47419D01*
X26255Y47388D01*
X26310Y47377D01*
X26365Y47388D01*
X26411Y47419D01*
X26442Y47465D01*
X26453Y47520D01*
X26442Y47575D01*
X26411Y47621D01*
X26365Y47652D01*
X26310Y47663D01*
D02*
G37*
G36*
X24190Y47515D02*
X24185Y47515D01*
X24139Y47484D01*
X24108Y47437D01*
X24107Y47433D01*
X24190D01*
Y47515D01*
D02*
G37*
G36*
X27750Y47650D02*
X27667D01*
X27668Y47645D01*
X27699Y47599D01*
X27745Y47568D01*
X27750Y47567D01*
Y47650D01*
D02*
G37*
G36*
X24290Y47515D02*
Y47433D01*
X24373D01*
X24372Y47437D01*
X24341Y47484D01*
X24295Y47515D01*
X24290Y47515D01*
D02*
G37*
G36*
X24740Y48896D02*
X24685Y48885D01*
X24639Y48854D01*
X24608Y48808D01*
X24597Y48753D01*
X24608Y48699D01*
X24639Y48652D01*
X24685Y48621D01*
X24740Y48610D01*
X24795Y48621D01*
X24841Y48652D01*
X24872Y48699D01*
X24883Y48753D01*
X24872Y48808D01*
X24841Y48854D01*
X24795Y48885D01*
X24740Y48896D01*
D02*
G37*
G36*
X24160Y48683D02*
Y48600D01*
X24243D01*
X24242Y48605D01*
X24211Y48651D01*
X24165Y48682D01*
X24160Y48683D01*
D02*
G37*
G36*
X22318Y48925D02*
X22264Y48914D01*
X22217Y48883D01*
X22186Y48836D01*
X22175Y48782D01*
X22186Y48727D01*
X22217Y48681D01*
X22264Y48650D01*
X22318Y48639D01*
X22373Y48650D01*
X22419Y48681D01*
X22450Y48727D01*
X22461Y48782D01*
X22450Y48836D01*
X22419Y48883D01*
X22373Y48914D01*
X22318Y48925D01*
D02*
G37*
G36*
X21150Y49203D02*
X21095Y49192D01*
X21049Y49161D01*
X21018Y49115D01*
X21007Y49060D01*
X21018Y49005D01*
X21049Y48959D01*
X21095Y48928D01*
X21150Y48917D01*
X21205Y48928D01*
X21251Y48959D01*
X21282Y49005D01*
X21293Y49060D01*
X21282Y49115D01*
X21251Y49161D01*
X21205Y49192D01*
X21150Y49203D01*
D02*
G37*
G36*
X25830Y49063D02*
X25775Y49052D01*
X25729Y49021D01*
X25698Y48975D01*
X25687Y48920D01*
X25698Y48865D01*
X25729Y48819D01*
X25775Y48788D01*
X25830Y48777D01*
X25885Y48788D01*
X25931Y48819D01*
X25962Y48865D01*
X25973Y48920D01*
X25962Y48975D01*
X25931Y49021D01*
X25885Y49052D01*
X25830Y49063D01*
D02*
G37*
G36*
X23080Y48693D02*
X23025Y48682D01*
X22979Y48651D01*
X22948Y48605D01*
X22937Y48550D01*
X22948Y48495D01*
X22979Y48449D01*
X23025Y48418D01*
X23080Y48407D01*
X23135Y48418D01*
X23181Y48449D01*
X23212Y48495D01*
X23223Y48550D01*
X23212Y48605D01*
X23181Y48651D01*
X23135Y48682D01*
X23080Y48693D01*
D02*
G37*
G36*
X27813Y48400D02*
X27730D01*
Y48317D01*
X27735Y48318D01*
X27781Y48349D01*
X27812Y48395D01*
X27813Y48400D01*
D02*
G37*
G36*
X24243Y48500D02*
X24160D01*
Y48417D01*
X24165Y48418D01*
X24211Y48449D01*
X24242Y48495D01*
X24243Y48500D01*
D02*
G37*
G36*
X27730Y48583D02*
Y48500D01*
X27813D01*
X27812Y48505D01*
X27781Y48551D01*
X27735Y48582D01*
X27730Y48583D01*
D02*
G37*
G36*
X27630D02*
X27625Y48582D01*
X27579Y48551D01*
X27548Y48505D01*
X27547Y48500D01*
X27630D01*
Y48583D01*
D02*
G37*
%LPD*%
D33*
X24367Y46568D02*
X27702D01*
X22740Y50740D02*
X23050Y51050D01*
X22740Y48196D02*
Y50740D01*
Y48196D02*
X24367Y46568D01*
X27702D02*
X27710Y46560D01*
D35*
X23550Y51050D02*
X23720Y50880D01*
X23870Y50870D02*
X24050Y51050D01*
X26190Y48090D02*
X26460Y48360D01*
X24184Y48090D02*
X26190D01*
X23870Y48404D02*
X24184Y48090D01*
X23870Y48404D02*
Y50870D01*
X24130Y47960D02*
X26820D01*
X23720Y48370D02*
Y50880D01*
Y48370D02*
X24130Y47960D01*
D38*
X22197Y41598D02*
D03*
Y45042D02*
D03*
D39*
X29250Y51400D02*
D03*
Y50400D02*
D03*
X28250Y51400D02*
D03*
Y50400D02*
D03*
X27250Y51400D02*
D03*
X30250Y50400D02*
D03*
Y51400D02*
D03*
D40*
X27250Y50400D02*
D03*
D41*
X23300Y50700D02*
D03*
X24800D02*
D03*
D42*
X21250Y51300D02*
D03*
X31300Y41200D02*
D03*
D43*
X22717Y45370D02*
D03*
X23660Y44910D02*
D03*
X23080Y48550D02*
D03*
X21150Y49060D02*
D03*
X22318Y48782D02*
D03*
X25120Y42400D02*
D03*
X25450Y42320D02*
D03*
X22074Y44058D02*
D03*
Y43566D02*
D03*
X21926Y43074D02*
D03*
X24330Y43280D02*
D03*
X22340Y48014D02*
D03*
Y48270D02*
D03*
X30675Y47560D02*
D03*
X28860Y46570D02*
D03*
X29510Y46788D02*
D03*
X30282Y45928D02*
D03*
X31130Y46395D02*
D03*
X31530Y47486D02*
D03*
X31128Y46788D02*
D03*
X26210Y47180D02*
D03*
X26012Y45040D02*
D03*
X26209Y45170D02*
D03*
X23050Y51050D02*
D03*
X23550D02*
D03*
X24050D02*
D03*
X27280Y41500D02*
D03*
X26650Y46005D02*
D03*
X26660Y46398D02*
D03*
X26780Y46202D02*
D03*
X25830Y48920D02*
D03*
X24110Y48550D02*
D03*
X22950Y46927D02*
D03*
X23300Y45147D02*
D03*
X29110Y43270D02*
D03*
X31710Y42980D02*
D03*
X30050Y42090D02*
D03*
X28950D02*
D03*
X28950Y47910D02*
D03*
X30050D02*
D03*
X26550Y42307D02*
D03*
X27050Y42100D02*
D03*
X26184Y42056D02*
D03*
X24400Y42307D02*
D03*
X26803Y44627D02*
D03*
X26100Y44050D02*
D03*
X27800Y47700D02*
D03*
Y46900D02*
D03*
X23320Y42430D02*
D03*
X28500Y47710D02*
D03*
X28500Y42290D02*
D03*
X28360Y45610D02*
D03*
X23050Y50360D02*
D03*
X24050D02*
D03*
X24740Y48753D02*
D03*
X26012Y47350D02*
D03*
X25225Y47560D02*
D03*
X26310Y47520D02*
D03*
X24930Y45320D02*
D03*
Y45080D02*
D03*
X26460Y48360D02*
D03*
X26820Y47960D02*
D03*
X27710Y46560D02*
D03*
X30900Y42790D02*
D03*
X27670Y41550D02*
D03*
X27680Y48450D02*
D03*
X29630Y46188D02*
D03*
X31440Y44640D02*
D03*
X25050Y51050D02*
D03*
X24240Y47383D02*
D03*
X24282Y46202D02*
D03*
X28415Y43875D02*
D03*
X28800Y44260D02*
D03*
M02*
